<?xml version="1.0" encoding="UTF-8"?>
<svg id="Laag_1" xmlns="http://www.w3.org/2000/svg" viewBox="0 0 144.05 143.46">
  <defs>
    <style>
      .cls-1 {
        fill: #603f49;
      }

      .cls-2 {
        fill: #664417;
      }

      .cls-3 {
        fill: #f4ba2e;
      }

      .cls-4 {
        fill: #fff;
      }

      .cls-5 {
        fill: #d46100;
      }

      .cls-6 {
        fill: #808623;
      }

      .cls-7 {
        fill: #fc7300;
      }

      .cls-8 {
        fill: #8d5e21;
      }
    </style>
  </defs>
  <g>
    <rect class="cls-6" x="1.46" y="1.52" width="140.52" height="140.52" rx="65.97" ry="65.97"/>
    <g>
      <path class="cls-1" d="M74.94,142.59c1.65-.07-.89-.26,1.08-.11-.22.12-.54.21-1.08.11Z"/>
      <path class="cls-1" d="M81.51,142.17c2.63-.57,5.66-1.02,8.73-1.65,3.08-.59,6.17-1.53,8.81-2.73.62-.28-.02.46,1.38-.2,2.52-1.3,5.78-2.87,9.05-4.75,3.29-1.86,6.6-4,9.38-6.06l-.24.36c1.05-.8,2.03-2.13,3.05-3.07.06.05-.25.39.06.24.1-.4,1.74-1.82,2-2.39.45-.33.54-.17,1.11-.61.12-.26.24-.5.35-.76.97-2.08,3.56-4.03,4.98-6.74-.03.15-.17.42.02.26,1.25-2.08,2.6-4.44,3.89-6.9,1.25-2.49,2.46-5.08,3.33-7.62.01.23.1.48.31.23-.09-.18.02-.65.18-1.27.14-.62.36-1.36.57-2.05.52-.52.46-2.44,1.08-4.01l.03.15c0-1.28.59-1.76.46-2.83.13-.24.27-.48.39-.73-.31-.62.53-1.74.5-2.79l-.09.02c.04-.98.3-1.45.35-2.35l.06-.08c.16-2.11.4-3.32.1-3.29.31-.72-.04,2.05.42.92.15-3.49,0-7.03-.02-10.58,0-3.55-.03-7.09-.41-10.58.03-.8,0-1.31.1-1.51-.08-.34-.16-1-.3-1.64-.14-.64-.29-1.27-.43-1.57.05.23.08-.48.03-.84-.11-1.28-.64-1.29-.8-2.69.21.52.35.68.43.48-.48-1.12-.88-2.66-1.35-4,.11.2.24.52.32.44-.66-1.41-.81-2.7-1.4-3.94l.34.42c-.52-2.14-.58-.47-1.13-2.28.22.4.23.22.33.27-.48-.76-.94-1.81-1.46-2.83-.25-.52-.49-1.04-.72-1.52-.25-.48-.5-.92-.72-1.3.07.08.1.03.1.03-.89-1.69-1.78-3.48-3.02-5.18-.34-.69.52-.03-.63-1.7-.23.24-2.11-2.72-1.75-1.51-.24-.36-.51-.77-.79-1.2-.3-.42-.62-.85-.93-1.27-.61-.84-1.22-1.59-1.66-1.97.62.49-.21-.93.76.13l-.54-.97c.22.02.7.88.62.5-.49-.54-1.97-2.05-2.4-2.53-.55-.41-1.11-.76-1.72-1.2-.63-.42-1.33-.91-2.12-1.64.83.59-.14-.7.4-.27-.88-.53-1.83-.98-2.72-1.46-.56-.45.08-.34-.78-.91-.02.11-.41-.12-.71-.25-.09-.1-.69-.54-1.26-1.01-.57-.48-1.17-.94-1.18-1.18-.17-.3,1,.61.43.05-1.09-.76-1.19-.71-2.29-1.44v-.05c-.7-.52-2.24-1.26-1.55-.57.5.34-.08-.31.62.26-.63-.16-1.94-.93-3.1-1.56.42.17.42.06.63.06-1.67-.66-3.37-1.43-5.18-2.18-.1.14.8.02,1.02.25-1.07-.68-2.32-1.11-3.48-1.56-1.19-.38-2.31-.79-3.24-1.31.34.08.09.29.09.24-1.14-.41-1.01-.63-1.79-.8-.03-.16-.95-.3-1.75-.46-.43-.01-.18-.13.5.05-1.13-.21-5.54-1.21-8.1-1.77.03.1-1.64.07-2.23.01l.26-.2c-.53-.2-2-.23-2.08-.44-1.31.1,4.95.41,3.19.4-.42-.27-2.45.05-2.04-.22-1.2-.17-2.39,0-3.53-.29.33.06,1.01-.24.03-.3-1.72-.08-.5.04-1.9.07l-.88.07c-.06.22-1.54-.07-.9.2-.2-.21-2.52.08-2.34-.28l.24-.29c-.75.02-1.24.31-1.83.44-.1-.03-.3-.09-.26-.13-.12.44-1.8-.04-2.7.31-.79-.08-1.8-.08-2.7-.1-.89,0-1.67-.01-2.04-.14-1.2.14-2.27.41-3.64.41.27-.06.64-.1.71-.2-.87-.06-1.07.06-1.84.21.17-.09-1.73-.04-2.71-.08-1.16.3-.72.5-.81.65-.57-.12-1.39.1-2.23.32-.85.23-1.7.54-2.41.49.39-.15,1.65-.6.66-.49-1.17-.19-2.07.8-3.81,1.1l.52.23c-.41,0-1.01.22-1.51.4-.49.19-.86.34-.84.14-.51.31-2,.55-1.7.82-2.82.69-6.39,2.78-8.22,3.09-.34.24-1.29.66-1.01.72.7-.14.79-.56,1.08-.56-.32.18-.35.3-.36.36-.84.32-1.45.68-.86,0-.92.4-1.3.79-1.72,1.22-.43.42-.9.89-1.99,1.53.02-.19-.17-.13-.79.29-.35.32-.7.64-1.03.99-1.36.9-.95.27-1.13.08-.7.54-1.58,1.16-1.77,1.57l-1.03.41c.75-.3-.48.57-.76.87l.29-.3c-.2,0-.94.71-1.3,1.08.2.04,1-.61,1.49-.91-.29.35-.83.79-1.19,1.28,0-.31-1.2.8-1.73,1.24-.61.51-.5.78-.68.94-.1-.08-.96.88-.63.33.17-.22.54-.34.79-.73-.45.29-.55.09-1.24.96-.5.67.47.18-.72,1.19.24-.34.22-.47.38-.75l-1.11.97.12.2c-.18.1-.1,0-.18.04-.14.47-1.48,1.67-1.48,2.11-.46.57-1.14,1.07-1.61,1.59l.07-.12c-.63.59-1.27,1.55-1.6,2.21v-.06c-.33.35-.93,1.29-1.17,1.84-.82.87-.94-.16-1.44,1.09-.65,1.03-.68,1.82-.3,1.48-.67.86-1.19,1.89-1.73,2.89-.56.98-1.04,1.99-1.65,2.8-.06.32.08.17-.17.76-1.46,2.83-2.42,6.22-3.59,8.48.21-.9-.19-.13-.32-.15-.06.78-.47.82-.22,1.18.22-.01.27.08.62-.74-.23.92-.51,2.07-.82,3.11-.28,1.05-.53,1.99-.74,2.49.21-.49.18-.08.14.33-.3-.21-.63,1.16-.69,2.22l.17.18-.32.64c0,.41.31.5,0,1.51-.08.04-.17.09-.24.28.01.55.03,1.22.02,1.89,0,.67-.02,1.35-.15,1.93l-.36.95c-.02.51.13,1.36.25.48-.23,2.01-.29,3.3-.54,3.96.63,3.55.53,8.74.76,12.71l-.16-.11c-.05,1.09.3.54.25,1.3-.17-.34-.24.85-.47.02-.04,1.57.48,1.97.66,2.96.21.13-.22-.79.04-.63.09.16.11,2.15.47,2.33-.04.4-.31.14-.46-.05l.31.91c-.13,1.21-1.06-2.51-1.26-1.25l.2.87c-.15.89-.75-2.27-.46-.05.31.94.87,1.67.85.8.43,1.96.82.78,1.27,2.87-.04.61-.42-1.65-.57-1.21,0,1.03.58,1.94.7,2.83-.11-1,.33-.24.58.35.16,1.08-.46-.61-.07.88.23.2.74,1.52.52.32.51.42.32,1.56.89,2.25-.09.56-1.1-1.31-.68.34.16-.33,1,1.86,1.08.89.14.65-.03.78-.33.38.14.96,1.26,1.96.89,2.44l.36.2c.03.3.11.73.19,1.22.34.76,1.43,2.29,1.04,2.39.15.23,1.01,1.92.91,1.15-.39-1.12-.8-1.12-.73-1.88.05.89.78,1.5,1.17,2.06l-.09.17c.24.33.62,1.18.9,1.31-.23-.22-.24-.04-.12.26l.42.25c.92,1.36-.17.54.69,1.89l-.76-.96c.17.21.25.8.7,1.43.34.14.86.48,1.14.6.56.7.01.47.68,1.09l-.84-.84c-.15-.11.12.86.79,1.86.51.59,1.45,1.38.85.33.35.49.74,1.26.33.96.85,1.07.08-.28.87.6.17.47.95,1.77,1.35,2.62l-1.05-.75.51.65c-.89-.67.17.57-.44.28.31.49.83.95,1.26,1.31-.71-1.56,1.72.97,1.73.31,1.58,1.59.17,1.77,2.28,3-.18-.36.82.2-.25-.73.92,1.05.98.36,2.03,1.63-1.01-.71.64,1.23-.82.2.19-.02-.64-.76-.86-.92.3.52-.4.23.65,1.23.67.58,1.55,1.41,1.58,1.11.13-.2-.99-.9-.42-.7,1.34,1.12,1.34,1.57,2.17,1.71-.85-.7-.89-1.07-.76-1.19l1.03.75-.3-.03c1.47,1.42.64.18,2.15,1.44l.52.83c-.55-.07-2.19-1.87-2.2-1.31.99.83,1.48.9,2.36,1.75-.24-.14-.54-.36-.77-.49.36.29.33,1.11,2.06,1.88.86.44.3.01.42-.12,1.71,1.18,2.37,1.29,3.49,2.01-.43.17,2.01,1.22.56.78-.25-.24-.99-.79-1.79-1.27-.8-.47-1.62-.92-2.01-1.02.39.77-1.3-.99-1.91-.93,1.36.98,1.07,1.26,1.14,1.63.37.29.81.47,1.06.59.3-.09-.21-.43-.09-.66,1.53,1.09,3.12,1.96,4.14,2.24.48.42.19.53-.47.18.99.52,1.98,1.11,3,1.62,1.01.53,2,1.07,2.96,1.52-1.08-.93,2.19.89,1.47.2-1-.55-1.76-1.2-1.12-1.11.63.31-.09.15.14.35.9.16,1.12.92,2.08.91-1.92-.65-.56.3-1.02.45,1.44.39-.15.18,1.21.72,1.43.39,3.17.87,4.75,1.3.94.43,2.19.79,3.42,1.09,1.25.24,2.47.47,3.37.63.91.32.21.56,1.23.8,1.21.21-.83-.54.93-.06l-.18.04c.54.06,3.27.68,3.85.26l-.6.31c.33.07.65.04.94.02,0,.12.39.27-.18.31,1.1.35,2.36.15,3.58.21-.26-.08-.52-.18-.77-.27,2.09-.08,3.47.18,5.5.1l-.06.22,1.21-.13c-.29.21.81.35,1.45.17l-3.14.54c-.87-.13.95-.27.4-.49-.47-.18-2.34-.14-2.64.05.72.04.75,0,1.31-.07.24.32-.85.28-1.4.47.38,0,.92.1,1,0-.74.13-1.5.14-2.74.11.85-.1-.45-.2-.13-.28-.11.29-1.3.26-2.83.08-.53-.19-1.25-.22-2.06-.25-.81-.03-1.71,0-2.58-.21.75-.13,1.7-.27,2.78-.23-1.08-.28-1.23-.14-2.3-.43-.56.11-.99.35-2.45.22l-.04-.21c-1.32-.12-1.37.12-3.01-.3-1.4-.34-2.78-.84-4.11-1.21-1.3-.46-2.53-.85-3.55-1.26v-.22c-.65-.02-1.61-.36-2.62-.74-.98-.43-2-.91-2.79-1.17-2.43-1.4-5.49-2.68-6.52-3.77-4.26-2.51-7.8-5.08-11.45-8.71l.83.38c-.81-.48-.31-.53-.99-1.12.56.9-1.09-.67-1.65-1.02-1.43-1.79-3.48-3.89-4.89-5.38l.11-.18c-.79-.69-1.42-1.63-2.09-2.62-.64-1.01-1.21-2.13-1.88-3.22-.07-.3-.14-.8-.54-1.44-.99-1.03-1.3-1.69-2.41-3.41-.36-.65-.72-1.57-1.09-2.47-.39-.9-.7-1.83-.91-2.56-1.28-2.5-2.14-5.22-2.92-7.98-.68-2.79-1.29-5.62-1.74-8.51l.18-.45c-.32-1.39-.45-2.88-.6-4.4-.06-1.52-.13-3.1-.11-4.58.03-3,.05-5.87-.04-8.28l.4.47c.16-1.5-.02-3.45-.32-3.08.24-1.51.07-3.81.57-4.73.27-1.53.03-1.92.22-3.2.17-.76.31-1.41.44-1.99.14-.58.26-1.09.39-1.6.23-1.02.43-2.03.81-3.45l-.22.69c0,.34.16.41.38-.29.1-.54.38-1.51.59-2.21.22-.7.3-1.16-.1-.72,1.18-2.91,2.37-6.97,4.12-9.53-.24.17.09-.53.16-.86.6-1.25,1.43-2.41,2.11-3.57.76-1.12,1.44-2.19,1.97-3.16.31-.32-.22.7.44-.21.34-.57-.13-.11.28-.82,2.4-3.81,5.83-6.95,8.72-9.77,2.53-2.57,5.38-4.96,8.4-7.01,3.03-2.06,6.2-3.82,9.32-5.32l-.03.12c1.96-1.33,5.12-1.82,6.69-2.91.55-.09,2-.63,1.67-.32.84-.41,2.11-.68,3.46-1.02,1.37-.25,2.83-.6,4.11-.98-.24.03-.38.08-.65.17,2.68-.28,4.99-.96,7.84-.98-.28.06-.8.13-.88.24,1.1.11,2.56-.61,3.19-.18.63-.02.44-.25.05-.22,3.14-.02,6.25-.01,9.43-.09,3.14-.1,6.49-.1,9.71.17,4.57.88.18.78,3.84.98.28.14.24-.14.28-.03,1.42.12,2.06.88,3.06.88-.33-.37.67-.01.74-.18,1.36.39,2.15.73,2.87,1.01.72.28,1.4.44,2.49.7l-.2.09c1.29.23,2.67.58,3.94,1.06.64.22,1.28.44,1.89.62.6.21,1.19.39,1.74.5,13.25,5.9,24.18,15.67,31.28,28.02,3.46,6.13,5.94,12.71,7.42,19.55.7,3.42,1.17,6.9,1.35,10.42.13,3.56.04,6.94-.02,10.41-.19,1.61-.31,2.51-.36,3.44-.05.93-.01,1.91-.09,3.74-.05-.15-.05-.38-.13-.14.16.1.11.75.07,1.41-.05.66-.15,1.34-.01,1.53-.71,5.22-1.73,9.99-3.56,15.11.24-.83.13-1.32-.18-.35-.04.36-.11.71-.18,1.07l-.15.13c-.21.66-.34,1.43.02.8-1.17,3.21-2.64,6.3-4.38,9.21-1.72,2.92-3.65,5.71-5.82,8.29-4.29,5.2-9.33,9.66-14.78,13.48-2.67,1.69-6.5,4.06-9.6,5.57-4.72,1.96-9.37,3.31-14.11,4.26-4.74.95-9.56,1.5-14.7,1.66,0,0,.34-.22,1.19-.48.86-.26,2.23-.52,4.3-.81Z"/>
      <path class="cls-1" d="M72.96,142.62c-.35-.16-1.5-.25-.59-.47.11.15.71.33.59.47Z"/>
      <path class="cls-1" d="M43.22,136.24c-.05.03-.38-.22-.45-.28.35.13.73.12.97.31-.36-.13-.33-.03-.52-.03Z"/>
      <path class="cls-1" d="M36.28,132.85c.16-.05,1.69.58,2.56,1.01-.85-.34-1.72-.65-2.56-1.01Z"/>
      <path class="cls-1" d="M30.53,128.54c-.43-.46-.25-.41.42.07,0,.1-.24-.03-.42-.07Z"/>
      <path class="cls-1" d="M29.92,128.52c-.49-.34-.68-.58-.86-.82-.05.11,1.17.73.86.82Z"/>
      <path class="cls-1" d="M18.8,117.76c-.25-.28-.88-.8-.96-1.18.15.38,1.32,1.25.96,1.18Z"/>
      <path class="cls-1" d="M14.25,112.19c-.13-.19-.15-.29-.34-.5-.17-.4.16-.08.36.22l-.03.28Z"/>
      <polygon class="cls-1" points="50.96 4.73 50.22 5.02 50.3 4.85 50.96 4.73"/>
      <path class="cls-1" d="M107.55,10.79c.73.31.41.39.51.48-.62-.34.32-.03-.51-.48Z"/>
      <polygon class="cls-1" points="130.85 31.48 130.72 31.28 131.01 31.19 130.85 31.48"/>
    </g>
  </g>
  <g>
    <path class="cls-3" d="M90.61,43.9s17.63-23.72-8.64-27.85c0,0-31.12,1.03-13.49,31.29l-38.04,17.53s4.84,44.69,43.91,36.79c0,0,52.21-4.47,16.25-57.76Z"/>
    <polygon class="cls-8" points="63.3 32.85 50.68 43.65 67.26 44.52 63.3 32.85"/>
    <polygon class="cls-8" points="64.79 102.43 64.9 117.89 60.34 122.8 68.45 129.6 76.94 120.66 72.13 115.37 71.51 102.07 64.79 102.43"/>
    <polygon class="cls-8" points="82.72 99.91 82.33 113.79 77.77 118.7 85.88 125.5 94.37 116.56 89.56 111.27 89.23 97.19 82.72 99.91"/>
    <path class="cls-7" d="M68.57,47.34l-44.94,20.65s12.54,26.76,34.31,17.91c0,0,33.79-10.55,10.63-38.56Z"/>
    <ellipse cx="75.2" cy="30.5" rx="2.28" ry="2.78"/>
    <ellipse class="cls-4" cx="74.13" cy="29.96" rx="1.18" ry="1.43"/>
    <polygon class="cls-2" points="83.36 100.52 83.21 113.23 85.27 112.16 84.51 100.14 83.36 100.52"/>
    <polygon class="cls-2" points="61.62 122.37 68.12 128.68 70.88 125.33 62.69 121.15 61.62 122.37"/>
    <path class="cls-5" d="M28.61,74.46s10.29,9.76,15.34,11.42c5.05,1.67,8.94-.2,8.94-.2l-24.28-11.23Z"/>
  </g>
</svg>