<?xml version="1.0" encoding="UTF-8"?>
<svg id="Laag_1" xmlns="http://www.w3.org/2000/svg" viewBox="0 0 123.79 97.25">
  <defs>
    <style>
      .cls-1, .cls-2 {
        stroke-linejoin: bevel;
      }

      .cls-1, .cls-2, .cls-3 {
        stroke: #fff;
      }

      .cls-1, .cls-4 {
        fill: #832c21;
      }

      .cls-5 {
        fill: #4a4471;
      }

      .cls-2, .cls-3 {
        fill: none;
      }

      .cls-6 {
        fill: #342f4f;
      }

      .cls-3 {
        stroke-miterlimit: 10;
      }

      .cls-7 {
        fill: #a13528;
      }

      .cls-8 {
        fill: #c33f30;
      }
    </style>
  </defs>
  <g>
    <rect class="cls-7" x="2.64" y="64.54" width="45.12" height="31.93"/>
    <path class="cls-6" d="M54.1,20.85l-19.58,1.49s-13.3,5.68-16.59,9.12C14.65,34.9,0,61.05,0,61.05v3.59h43.79l10.31-43.79Z"/>
    <path class="cls-5" d="M123.71,64.68c-.84,3.67-34.29.72-44.91-.3-8.46,1.04-34.53,3.95-35.36.3-1-4.36,7.4-40.1,11.4-45.43C59.1,13.58,63.63,8.74,83.06.05c.04-.02.08-.04.12-.05.01,0,.02,0,.03.01,19.45,8.69,24.32,13.76,29.09,19.23,4.38,5.03,12.4,41.07,11.4,45.43Z"/>
    <path class="cls-8" d="M119.48,64.87h-.47v31.58H47.64v-31.58h-.83c.31-21.57,9.68-42.32,9.68-42.32,3.34-4.9,23.96-17.9,26.54-19,.04-.02.08-.03.11-.05.03.02.07.03.11.05,2.58,1.1,22.33,13.13,26.54,19,0,0,9.37,20.75,9.68,42.32Z"/>
  </g>
  <g>
    <rect class="cls-4" x="69.38" y="70.36" width="29.44" height="26.39"/>
    <polygon class="cls-3" points="69.38 70.36 84.05 70.36 98.82 70.36 98.82 96.75 69.38 96.75 69.38 70.36"/>
    <polygon class="cls-2" points="84.3 96.67 84.29 70.55 69.38 96.75 69.37 70.35 84.3 96.67"/>
    <polygon class="cls-2" points="98.83 96.61 98.83 70.49 84.37 96.7 84.37 70.29 98.83 96.61"/>
  </g>
  <rect class="cls-1" x="64.38" y="35.76" width="16.98" height="12.73"/>
  <rect class="cls-1" x="16.23" y="74.64" width="16.98" height="12.73"/>
  <rect class="cls-1" x="86.49" y="35.76" width="16.98" height="12.73"/>
  <polyline class="cls-2" points="81.36 48.49 64.38 35.76 81.36 35.76 64.38 48.49"/>
  <polyline class="cls-2" points="33.21 87.36 16.23 74.64 33.21 74.64 16.23 87.36"/>
  <polyline class="cls-2" points="103.47 48.49 86.49 35.76 103.47 35.76 86.49 48.49"/>
  <circle class="cls-1" cx="84.02" cy="21.5" r="8.07"/>
  <line class="cls-1" x1="75.94" y1="21.5" x2="92.09" y2="21.5"/>
  <line class="cls-1" x1="84.02" y1="13.43" x2="84.02" y2="29.58"/>
</svg>