<?xml version="1.0" encoding="UTF-8"?>
<svg id="Laag_1" xmlns="http://www.w3.org/2000/svg" viewBox="0 0 148.22 147.52">
  <defs>
    <style>
      .cls-1 {
        fill: #603f49;
      }

      .cls-2 {
        fill: #f7aec2;
      }

      .cls-3 {
        fill: #eb9146;
      }

      .cls-4 {
        fill: #fff;
      }

      .cls-5 {
        fill: #f2b15e;
      }

      .cls-6 {
        fill: #e47144;
      }
    </style>
  </defs>
  <g>
    <rect class="cls-2" x="1.42" y="1.38" width="144.72" height="144.72" rx="72.36" ry="72.36"/>
    <g>
      <path class="cls-1" d="M72.69,146.62c1.68-.02-.9-.28,1.1-.09-.23.11-.55.19-1.1.09Z"/>
      <path class="cls-1" d="M79.35,146.25c2.67-.54,5.73-1.01,8.86-1.55,3.11-.64,6.29-1.36,8.98-2.59.64-.25-.03.45,1.41-.14,2.57-1.29,5.94-2.73,9.33-4.49,3.4-1.75,6.85-3.77,9.78-5.69l-.26.36c1.09-.77,2.17-2.03,3.25-2.93.06.05-.27.38.05.25.11-.42,1.87-1.74,2.17-2.29.47-.32.55-.14,1.15-.56l.4-.75c.61-.98,1.51-1.98,2.57-3,1.02-1.04,2.11-2.17,2.95-3.45-.04.15-.19.42,0,.27,2.82-4.02,6.23-9.1,8.51-14.07-.01.23.05.49.29.25-.11-.36.52-1.92,1.07-3.27.57-.47.7-2.42,1.49-3.94v.16c.15-1.29.78-1.72.77-2.8l.47-.69c-.23-.65.71-1.7.8-2.76h-.09c.19-.96.47-1.41.62-2.32l.07-.07c.41-2.1.8-3.29.48-3.3.38-.69-.25,2.06.32.98.53-3.5.86-7.07,1.04-10.65.13-3.58.03-7.18-.29-10.71.04-.81,0-1.33.1-1.52-.15-.7-.38-2.65-.69-3.25.05.23.08-.48.03-.85-.12-1.3-.57-1.33-.76-2.74.21.53.35.7.43.49-.53-1.13-.8-2.73-1.3-4.07.11.2.24.52.32.45-.71-1.43-.7-2.78-1.34-4.02l.34.43c-.5-2.17-.58-.49-1.06-2.35.2.41.22.24.32.29-.92-1.56-1.89-4.27-2.76-5.82.07.09.1.04.1.04-.4-.88-.84-1.76-1.3-2.66-.45-.91-.94-1.82-1.55-2.7-.31-.71.52,0-.56-1.75-.26.24-2-2.85-1.7-1.61-.22-.38-.47-.81-.74-1.26-.29-.44-.59-.89-.88-1.33-.59-.87-1.15-1.68-1.57-2.09.6.53-.17-.95.76.18l-.5-1c.22.04.66.93.6.53-.48-.57-1.88-2.17-2.28-2.7-1.08-.87-2.16-1.57-3.72-3.09.81.64-.11-.71.42-.24-.87-.58-1.74-1.15-2.65-1.66-.53-.49.09-.32-.74-.97-.03.11-.4-.16-.68-.32-.16-.23-2.32-1.9-2.32-2.39-.15-.32.94.72.42.09-1.01-.88-1.17-.78-2.22-1.62v-.05c-.32-.29-.86-.67-1.23-.87-.39-.19-.6-.21-.27.15.49.38-.05-.32.6.32-.61-.23-1.92-1.05-3-1.83.4.21.41.1.62.12-.81-.42-1.63-.84-2.48-1.28-.83-.45-1.68-.94-2.58-1.36-.12.13.8.1,1.01.32-1.05-.73-2.23-1.35-3.39-1.87-1.17-.5-2.25-1.04-3.15-1.63.33.12.07.3.07.25-1.11-.53-.96-.73-1.73-.98-.01-.16-.93-.39-1.72-.63-.44-.06-.17-.15.5.1-.56-.14-1.92-.62-3.47-1.13-1.55-.48-3.27-1.07-4.52-1.5.02.12-1.66-.12-2.25-.25l.29-.17c-.51-.26-2-.44-2.05-.65-.67-.01.57.21,1.75.42,1.18.21,2.29.49,1.42.34-.39-.34-2.47-.24-2.03-.46-1.2-.27-2.4-.31-3.52-.7.33.1,1.04-.14.06-.29-1.73-.27-.51.02-1.92-.15-.3-.03-.59-.04-.89-.04-.09.21-1.54-.23-.93.1-.19-.21-2.52-.21-2.31-.54l.27-.27c-.76-.05-1.26.21-1.86.29-.1-.03-.29-.11-.25-.15-.15.44-1.79-.2-2.7.15-.79-.1-1.79-.13-2.69-.16-.9,0-1.69-.01-2.07-.14-1.21.14-2.31.38-3.69.4.27-.06.65-.1.72-.21-.88-.06-1.08.07-1.87.2.17-.11-1.75-.05-2.74-.09-1.19.28-.74.47-.84.63-.58-.15-1.41.09-2.27.32-.86.23-1.75.47-2.46.44.39-.17,1.68-.59.67-.49-1.17-.16-2.11.79-3.88,1.04l.51.23c-.82,0-2.46.92-2.38.51-.54.26-2.04.52-1.74.79-2.9.56-6.54,2.68-8.44,2.86-.36.21-1.32.65-1.05.71.7-.15.81-.56,1.1-.54-.34.16-.37.29-.38.35-.84.34-1.49.64-.86-.01-1.9.74-1.61,1.45-3.88,2.62.03-.19-.17-.14-.81.26-.37.3-.73.63-1.09.96-1.43.85-.97.23-1.14.04-.73.52-1.66,1.1-1.87,1.5l-1.06.37c.78-.27-.51.55-.82.84l.31-.29c-.2,0-1,.66-1.38,1.02.18.04,1.06-.55,1.56-.83-.31.35-.9.74-1.28,1.22,0-.32-1.24.76-1.82,1.17-.68.46-.56.76-.75.9-.1-.08-1.01.85-.65.3.18-.21.56-.32.83-.7-.46.28-.56.07-1.3.92-.55.64.48.22-.82,1.14.27-.32.27-.44.45-.72-.4.29-.81.58-1.19.9l.11.21c-.18.1-.1-.01-.18.03-.16.48-1.59,1.62-1.65,2.03-.51.55-1.2,1.03-1.71,1.53l.08-.11c-.35.27-.71.63-1.03,1.01-.3.39-.57.78-.75,1.11v-.06c-.33.35-1.05,1.22-1.33,1.76-.87.84-.9-.21-1.51,1.02-.76.97-.86,1.76-.44,1.46-.71.84-1.33,1.83-1.98,2.78-.61.98-1.2,1.93-1.9,2.7-.09.31.05.17-.22.76-1.74,2.72-2.99,6.07-4.41,8.24.3-.89-.18-.15-.3-.18-.14.78-.55.78-.34,1.17.22,0,.27.11.69-.69-.32.9-.72,2.04-1.14,3.06-.4,1.02-.74,1.96-1,2.43.26-.48.19-.07.11.35-.26-.23-.77,1.09-.93,2.16l.15.2-.38.61c-.05.42.26.54-.19,1.52-.09.03-.17.08-.27.25-.08,1.13-.22,2.68-.57,3.83l-.45.92c-.06.51-.04,1.39.2.51-.28.99-.43,1.82-.57,2.47-.14.66-.27,1.14-.43,1.45.18,3.58.03,8.66.28,12.75l-.16-.11c-.05,1.11.3.55.26,1.32-.17-.34-.24.86-.47.01-.05,1.59.44,2,.63,3.01.21.13-.23-.8.04-.63.09.16.13,2.18.44,2.38-.05.41-.32.14-.46-.06.08.31.2.62.3.93-.06.61-.33-.03-.61-.66-.24-.64-.5-1.27-.63-.62.06.3.1.59.17.89-.19.9-.66-2.32-.46-.05.32.95.88,1.7.85.82.45,1.98.82.81,1.23,2.93-.02.31-.13-.11-.24-.55-.1-.44-.21-.91-.29-.68-.07,1.06.57,1.98.68,2.88-.12-1.01.36-.24.56.38.11,1.1-.43-.63-.11.9.23.21.74,1.55.52.33.52.44.34,1.58.85,2.31-.12.57-1.03-1.37-.69.32.15-.32.98,1.91,1.06.93.14.65-.03.79-.33.37.16.96,1.18,2.04.81,2.51l.37.21c.03.31.13.73.17,1.24.15.39.49.99.73,1.5.26.5.44.91.24.96.15.23.93,2,.87,1.2-.34-1.16-.75-1.17-.68-1.92.07.89.75,1.55,1.12,2.13l-.09.17c.21.35.61,1.21.88,1.36-.22-.24-.24-.05-.13.26l.41.28c.87,1.42-.19.54.62,1.95-.26-.33-.49-.67-.73-1.01.17.22.19.83.66,1.47.34.16.85.53,1.12.67.53.74,0,.48.63,1.14l-.81-.89c-.14-.12.07.88.73,1.92.49.62,1.4,1.48.84.38.33.51.69,1.31.29.98.81,1.13.09-.28.85.66.15.49.88,1.84,1.24,2.72l-1.02-.82.48.69c-.87-.72.14.58-.46.25.3.5.78,1.01,1.2,1.4-.65-1.61,1.69,1.08,1.73.42,1.49,1.71.07,1.8,2.15,3.17-.17-.37.82.25-.22-.75.91,1.09.93.46,1.95,1.78-.99-.77.59,1.27-.84.15.18,0-.6-.81-.8-1,.27.55-.43.22.57,1.29.65.62,1.5,1.5,1.54,1.21.16-.2-.96-.97-.38-.73,1.27,1.23,1.23,1.7,2.08,1.88-.84-.74-.84-1.13-.7-1.24.32.29.67.55,1,.83l-.3-.05c1.42,1.52.65.2,2.07,1.62l.49.86c-.58-.07-2.06-2.08-2.12-1.49.93.93,1.41,1.05,2.27,1.94-.23-.15-.53-.39-.76-.54.34.32.3,1.09,1.95,2.05.84.5.3.03.43-.08,1.7,1.25,2.27,1.54,3.39,2.29-.43.11,1.93,1.41.51.83-.22-.29-.97-.84-1.72-1.41-.75-.56-1.55-1.08-1.95-1.19.18.39-.14.13-.58-.24-.42-.38-.96-.86-1.27-.86,1.28,1.13.97,1.37,1.02,1.74.36.31.8.51,1.04.65.31-.07-.18-.45-.05-.67,1.43,1.25,3.02,2.2,4.01,2.6.45.47.15.55-.48.13.93.65,1.93,1.25,2.9,1.89.96.65,1.94,1.22,2.86,1.79-1.01-1.03,2.12,1.11,1.46.34-.96-.64-1.66-1.38-1.03-1.22.6.38-.11.14.11.36.89.27,1.06,1,2.02,1.1-1.89-.82-.58.25-1.07.35,1.41.53-.16.17,1.16.84,1.39.56,3.13,1.15,4.66,1.78.9.53,2.13,1.01,3.34,1.44,1.23.38,2.45.71,3.33,1,.89.42.15.58,1.15.92,1.2.33-.78-.62.94.04l-.19.02c.28.03,1.07.35,1.89.54.82.2,1.65.34,1.97.15l-.64.25c.33.11.66.1.94.12-.01.12.35.33-.21.28,1.05.54,2.36.4,3.58.63l-.74-.36c1.05.11,1.92.27,2.78.38.86.13,1.71.29,2.73.35l-.08.22,1.23-.04c-.31.19.79.41,1.45.28-1.06.09-2.14.21-3.22.29-.87-.23.99-.16.46-.44-.45-.23-2.33-.42-2.67-.25.72.12.76.07,1.33.06.2.34-.89.19-1.47.32.38.04.91.2,1,.11-.76.04-1.53.02-2.77-.21.86.03-.42-.27-.09-.3-.14.25-1.34.12-2.86-.23-1.01-.58-2.9-.4-4.61-1.01.77-.05,1.73-.04,2.82.09-1.06-.4-1.23-.25-2.27-.7-.58.05-1.03.25-2.49-.04l-.02-.22c-1.3-.3-1.39-.04-2.99-.63-1.37-.5-2.72-1.13-4.01-1.63-1.27-.58-2.46-1.12-3.46-1.61v-.22c-.63-.09-1.57-.52-2.54-1.01-.97-.49-1.93-1.11-2.71-1.43-1.2-.77-2.48-1.62-3.66-2.31-1.14-.75-2.12-1.45-2.61-2.01-4.1-2.86-7.5-5.7-10.96-9.6.26.15.54.29.81.44-.8-.52-.3-.55-.92-1.2.51.95-1.05-.75-1.62-1.12-.69-.93-1.46-2-2.32-2.97-.84-.98-1.63-1.96-2.32-2.74l.12-.18c-.75-.74-1.36-1.72-1.98-2.75-.61-1.04-1.12-2.21-1.75-3.34-.08-.29-.12-.8-.49-1.48-.92-1.1-1.28-1.75-2.29-3.55-.66-1.36-1.46-3.68-1.89-5.15-2.36-5.19-3.43-10.95-4.37-16.78l.18-.45c-.26-1.41-.45-2.92-.56-4.46-.05-1.54-.16-3.12-.07-4.66.03-.77.05-1.54.08-2.29.04-.75.12-1.49.16-2.21.08-1.44.23-2.79.33-4.01l.34.52c.28-1.5.4-3.46.06-3.13.2-.75.31-1.7.46-2.58.18-.87.37-1.67.64-2.11.41-1.52.28-1.91.58-3.19.48-1.5.86-2.52,1.21-3.52.16-.5.33-1,.51-1.55.2-.54.41-1.13.67-1.83l-.29.68c-.04.34.12.42.41-.25.15-.53.54-1.48.81-2.16.29-.68.42-1.14-.03-.73,1.47-2.81,3.06-6.78,5.01-9.22-.26.15.14-.52.25-.84.38-.59.77-1.18,1.17-1.75.43-.56.85-1.12,1.26-1.66.8-1.1,1.62-2.09,2.22-3.04.33-.31-.26.7.45-.19.38-.56-.13-.12.33-.82,2.7-3.67,6.37-6.6,9.46-9.27,2.72-2.44,5.7-4.7,8.86-6.63,3.16-1.92,6.41-3.61,9.63-5.01l-.03.12c1-.64,2.33-1.03,3.58-1.46,1.26-.38,2.47-.72,3.27-1.29.55-.1,2.05-.55,1.7-.26.86-.37,2.13-.71,3.52-.95.69-.13,1.41-.27,2.11-.44.71-.15,1.41-.29,2.06-.49-.25.03-.38.08-.66.17,1.36-.14,2.61-.39,3.9-.55.64-.09,1.29-.18,1.96-.27.67-.07,1.36-.09,2.08-.1-.29.06-.81.13-.89.24,1.11.11,2.59-.63,3.22-.16.63-.02.44-.25.05-.22,6.27-.05,13.01.09,19.45,1.47,2.26.67,2.28.87,2.2.98-.08.11-.26.08,1.56.42.26.17.26-.11.28,0,.71.13,1.2.41,1.65.66.44.27.83.51,1.34.55-.3-.41.67.06.76-.1,1.33.53,2.08.96,2.79,1.31.7.36,1.37.59,2.44.95l-.21.07c2.59.67,5.25,2.22,7.42,2.91,12.8,7.14,23.14,17.59,29.82,30.34,6.43,12.64,9.46,26.86,7.84,41.21-.78,3.31-.76,3.55-1.27,7.22-.04-.16-.01-.39-.11-.16.32.25-.51,2.55-.29,2.96-1.29,5.16-2.82,9.85-5.15,14.82.33-.81.26-1.31-.14-.37-.08.36-.16.72-.27,1.06l-.16.12c-.28.65-.48,1.4-.06.8-2.96,6.24-7.03,11.87-11.69,16.81-2.35,2.46-4.86,4.74-7.47,6.88-2.66,2.09-5.37,4.09-8.23,5.86-2.78,1.58-6.72,3.84-9.91,5.24-4.82,1.83-9.56,3.08-14.36,3.97-4.81.87-9.69,1.38-14.88,1.54,0,0,.34-.22,1.21-.48.87-.27,2.26-.5,4.36-.8Z"/>
      <path class="cls-1" d="M70.66,146.6c-.35-.16-1.52-.33-.57-.49.11.16.7.34.57.49Z"/>
      <path class="cls-1" d="M41.3,137.15c-.06.03-.36-.26-.43-.33.34.16.72.2.95.41-.35-.16-.33-.07-.52-.09Z"/>
      <path class="cls-1" d="M34.58,133.11c.18-.06,1.65.75,2.49,1.26l-2.49-1.26Z"/>
      <path class="cls-1" d="M29.08,128.32c-.4-.49-.24-.42.42.1,0,.1-.24-.04-.42-.1Z"/>
      <path class="cls-1" d="M28.47,128.24c-.46-.39-.63-.66-.8-.91-.06.11,1.11.86.8.91Z"/>
      <path class="cls-1" d="M17.89,116.62c-.25-.29-.84-.86-.91-1.25.12.4,1.26,1.35.91,1.25Z"/>
      <path class="cls-1" d="M13.56,110.74c-.12-.21-.16-.3-.32-.51-.15-.41.15-.06.36.24l-.04.28Z"/>
      <polygon class="cls-1" points="57.06 4.47 56.3 4.72 56.38 4.55 57.06 4.47"/>
      <path class="cls-1" d="M113.37,14.48c.72.36.38.43.48.52-.6-.4.33,0-.48-.52Z"/>
      <polygon class="cls-1" points="135.67 36.94 135.54 36.73 135.84 36.65 135.67 36.94"/>
    </g>
  </g>
  <g>
    <path class="cls-6" d="M67.48,38.76s2.68-11.56-6.07-12.26c0,0-4.48-2.53-6.92,4.78,0,0-8.81-3-6.56,4.31,0,0-9.75-3-8.81,6.75,0,0-9.38-2.81-8.25,7.5,0,0-8.63-.75-9,6.94,0,0-4.5-.56-3.75,6.38,0,0,10.88,38.25,15.94,39.19,0,0,51.56,8.63,94.5,6.38l.93-3.02-62.01-66.95Z"/>
    <path class="cls-3" d="M67.41,38.62s55.52,37.84,57.58,45.24c0,0-84.72,0-97.06-5.76,0,0,7.03-3.4,6.84-7,0,0,9.08-3.4,7.94-7.75,0,0,7.37.19,6.62-7.18,0,0,7.94-1.51,5.67-5.67,0,0,7.37-.19,5.67-5.48,0,0,7.62.26,6.74-6.4Z"/>
    <path class="cls-5" d="M124.95,83.58s5.1,11.72,4.54,22.12c0,0-86.22-3.03-92.83-5.48l-8.7-22.12,96.99,5.48Z"/>
    <ellipse class="cls-4" cx="76.93" cy="48.69" rx="1.11" ry="1.03"/>
    <ellipse class="cls-4" cx="77.69" cy="57.12" rx="1.11" ry="1.03"/>
    <ellipse class="cls-4" cx="93.45" cy="61.82" rx="1.11" ry="1.03"/>
    <ellipse class="cls-4" cx="73.95" cy="77.34" rx="1.11" ry="1.03"/>
    <ellipse class="cls-4" cx="65.96" cy="68.65" rx="1.11" ry="1.03"/>
    <ellipse class="cls-4" cx="93.39" cy="76.62" rx="1.11" ry="1.03"/>
    <ellipse class="cls-4" cx="109.39" cy="73.29" rx="1.11" ry="1.03"/>
    <ellipse class="cls-4" cx="104.61" cy="77.05" rx="1.11" ry="1.03"/>
    <ellipse class="cls-4" cx="80.67" cy="67.16" rx="1.11" ry="1.03"/>
    <ellipse class="cls-4" cx="55.55" cy="74.34" rx="1.11" ry="1.03"/>
    <ellipse class="cls-4" cx="56.48" cy="63.44" rx="1.11" ry="1.03"/>
    <ellipse class="cls-4" cx="42.04" cy="72.21" rx="1.11" ry="1.03"/>
    <ellipse class="cls-4" cx="63.78" cy="56.97" rx="1.11" ry="1.03"/>
    <ellipse class="cls-4" cx="65.43" cy="48" rx="1.11" ry="1.03"/>
    <ellipse class="cls-4" cx="98.33" cy="69.77" rx="1.11" ry="1.03"/>
    <ellipse class="cls-4" cx="117.08" cy="80.26" rx="1.11" ry="1.03"/>
    <path class="cls-4" d="M59.58,86.45c.12-1.38,1.28-2.43,2.66-2.48,2.75-.1,7.3,0,9.47,1.64,3.31,2.49-2.37,3.32-6.42,5.35-3.5,1.75-6.08-.12-5.72-4.5Z"/>
    <path class="cls-4" d="M69.75,96.83c-1.54-1.68.05-3.29,1.92-4.6,4.56-3.2,11.82.57,14.92,2.28,3.63,2-1.87,5.21-6.42,5.35-3.16.09-8.18-.59-10.42-3.03Z"/>
    <path class="cls-4" d="M88.81,91.99c-1.93-1.62-.49-4.77,2.01-4.45,2.93.38,6.92,1.09,8.7,2.22,3.5,2.22,3.73,4.63-.81,4.76-2.93.09-7.48-.5-9.9-2.53Z"/>
    <path class="cls-4" d="M42.86,96.72c-.44-1.76-.49-4.77,2.01-4.45,2.93.38,6.78,1.35,8.7,2.22,1.29.57,2.6,2.94-.81,4.76-2.59,1.39-9.14.54-9.9-2.53Z"/>
    <path class="cls-4" d="M105.98,89.97c-.75-1.53,1.92-4.99,3.63-5.14,4.76-.42,15.62-.37,15.62,2.86,0,4.14-2.05,2.57-6.6,2.7-3.57.1-11.03,2.87-12.65-.42Z"/>
    <path class="cls-4" d="M95.89,101.45c-2.41-1.57-1.23-5.34,1.65-5.3,7.07.08,21.6.63,21.6,3.77,0,4.14-9.46,3.44-14,3.58-2.68.08-6.72-.4-9.24-2.04Z"/>
    <path class="cls-4" d="M33.94,86.12c-2.41-1.57-1.23-5.34,1.65-5.3,7.07.08,21.6.63,21.6,3.77,0,4.14-9.46,3.44-14,3.58-2.68.08-6.72-.4-9.24-2.04Z"/>
  </g>
</svg>