<?xml version="1.0" encoding="UTF-8"?>
<svg id="Laag_1" xmlns="http://www.w3.org/2000/svg" viewBox="0 0 146.84 146.15">
  <defs>
    <style>
      .cls-1 {
        fill: #603f49;
      }

      .cls-2 {
        fill: none;
        stroke: #808623;
        stroke-linecap: round;
        stroke-linejoin: round;
        stroke-width: 4px;
      }

      .cls-3 {
        fill: #fa8b2f;
      }

      .cls-4 {
        fill: #eb9146;
      }

      .cls-5 {
        opacity: .6;
      }

      .cls-5, .cls-6 {
        fill: #ebeced;
      }

      .cls-6 {
        opacity: .4;
      }

      .cls-7 {
        fill: #fff;
      }

      .cls-8 {
        fill: #f2b15e;
      }

      .cls-9 {
        fill: #808623;
      }

      .cls-10 {
        fill: #cdcd98;
      }

      .cls-11 {
        fill: #e47144;
      }
    </style>
  </defs>
  <g>
    <path class="cls-11" d="M66.64,29.9s2.68-11.56-6.07-12.26c0,0-4.48-2.53-6.92,4.78,0,0-8.81-3-6.56,4.31,0,0-9.75-3-8.81,6.75,0,0-9.38-2.81-8.25,7.5,0,0-8.63-.75-9,6.94,0,0-4.5-.56-3.75,6.38,0,0,10.88,38.25,15.94,39.19,0,0,51.56,8.63,94.5,6.38l.93-3.02L66.64,29.9Z"/>
    <path class="cls-4" d="M66.56,29.76s55.52,37.84,57.58,45.24c0,0-84.72,0-97.06-5.76,0,0,7.03-3.4,6.84-7,0,0,9.08-3.4,7.94-7.75,0,0,7.37.19,6.62-7.18,0,0,7.94-1.51,5.67-5.67,0,0,7.37-.19,5.67-5.48,0,0,7.62.26,6.74-6.4Z"/>
    <path class="cls-8" d="M124.11,74.73s5.1,11.72,4.54,22.12c0,0-86.22-3.03-92.83-5.48l-8.7-22.12,96.99,5.48Z"/>
    <ellipse class="cls-7" cx="76.08" cy="39.84" rx="1.11" ry="1.03"/>
    <ellipse class="cls-7" cx="76.84" cy="48.26" rx="1.11" ry="1.03"/>
    <ellipse class="cls-7" cx="92.6" cy="52.96" rx="1.11" ry="1.03"/>
    <ellipse class="cls-7" cx="73.11" cy="68.49" rx="1.11" ry="1.03"/>
    <ellipse class="cls-7" cx="65.11" cy="59.8" rx="1.11" ry="1.03"/>
    <ellipse class="cls-7" cx="92.55" cy="67.76" rx="1.11" ry="1.03"/>
    <ellipse class="cls-7" cx="108.54" cy="64.44" rx="1.11" ry="1.03"/>
    <ellipse class="cls-7" cx="103.76" cy="68.2" rx="1.11" ry="1.03"/>
    <ellipse class="cls-7" cx="79.82" cy="58.3" rx="1.11" ry="1.03"/>
    <ellipse class="cls-7" cx="54.7" cy="65.48" rx="1.11" ry="1.03"/>
    <ellipse class="cls-7" cx="55.63" cy="54.58" rx="1.11" ry="1.03"/>
    <ellipse class="cls-7" cx="41.19" cy="63.35" rx="1.11" ry="1.03"/>
    <ellipse class="cls-7" cx="62.93" cy="48.11" rx="1.11" ry="1.03"/>
    <ellipse class="cls-7" cx="64.58" cy="39.14" rx="1.11" ry="1.03"/>
    <ellipse class="cls-7" cx="97.48" cy="60.91" rx="1.11" ry="1.03"/>
    <ellipse class="cls-7" cx="116.23" cy="71.4" rx="1.11" ry="1.03"/>
    <path class="cls-7" d="M58.74,77.59c.12-1.38,1.28-2.43,2.66-2.48,2.75-.1,7.3,0,9.47,1.64,3.31,2.49-2.37,3.32-6.42,5.35-3.5,1.75-6.08-.12-5.72-4.5Z"/>
    <path class="cls-7" d="M68.9,87.97c-1.54-1.68.05-3.29,1.92-4.6,4.56-3.2,11.82.57,14.92,2.28,3.63,2-1.87,5.21-6.42,5.35-3.16.09-8.18-.59-10.42-3.03Z"/>
    <path class="cls-7" d="M87.96,83.13c-1.93-1.62-.49-4.77,2.01-4.45,2.93.38,6.92,1.09,8.7,2.22,3.5,2.22,3.73,4.63-.81,4.76-2.93.09-7.48-.5-9.9-2.53Z"/>
    <path class="cls-7" d="M42.01,87.87c-.44-1.76-.49-4.77,2.01-4.45,2.93.38,6.78,1.35,8.7,2.22,1.29.57,2.6,2.94-.81,4.76-2.59,1.39-9.14.54-9.9-2.53Z"/>
    <path class="cls-7" d="M105.14,81.11c-.75-1.53,1.92-4.99,3.63-5.14,4.76-.42,15.62-.37,15.62,2.86,0,4.14-2.05,2.57-6.6,2.7-3.57.1-11.03,2.87-12.65-.42Z"/>
    <path class="cls-7" d="M95.05,92.59c-2.41-1.57-1.23-5.34,1.65-5.3,7.07.08,21.6.63,21.6,3.77,0,4.14-9.46,3.44-14,3.58-2.68.08-6.72-.4-9.24-2.04Z"/>
    <path class="cls-7" d="M33.09,77.27c-2.41-1.57-1.23-5.34,1.65-5.3,7.07.08,21.6.63,21.6,3.77,0,4.14-9.46,3.44-14,3.58-2.68.08-6.72-.4-9.24-2.04Z"/>
  </g>
  <g>
    <g>
      <rect class="cls-3" x="1.42" y="1.38" width="143.35" height="143.35" rx="71.68" ry="71.68"/>
      <g>
        <path class="cls-1" d="M72.01,145.24c1.66-.03-.89-.28,1.09-.09-.23.11-.55.19-1.09.09Z"/>
        <path class="cls-1" d="M78.61,144.87c2.64-.54,5.68-1,8.78-1.54,3.08-.64,6.23-1.35,8.9-2.57.64-.25-.03.45,1.4-.14,2.55-1.28,5.88-2.71,9.24-4.45,3.37-1.74,6.79-3.73,9.69-5.63l-.26.35c1.08-.77,2.14-2.02,3.22-2.9.06.05-.27.38.05.25.11-.42,1.85-1.72,2.15-2.27.46-.31.55-.14,1.14-.56l.39-.75c.6-.97,1.5-1.97,2.54-2.97,1.01-1.03,2.09-2.15,2.92-3.42-.04.15-.19.42,0,.27,2.79-3.99,6.17-9.02,8.42-13.94-.01.23.05.49.29.25-.11-.35.52-1.9,1.06-3.24.57-.47.69-2.39,1.47-3.9v.16c.15-1.28.78-1.7.76-2.78l.47-.68c-.23-.64.7-1.68.79-2.74h-.09c.18-.95.47-1.4.61-2.3l.07-.07c.4-2.08.79-3.26.48-3.27.38-.69-.25,2.04.32.97.53-3.47.84-7,1.02-10.55.13-3.55.03-7.11-.29-10.61.04-.81,0-1.32.1-1.51-.15-.69-.38-2.63-.69-3.22.05.23.08-.47.03-.84-.11-1.29-.57-1.32-.75-2.71.21.53.35.69.43.48-.53-1.12-.79-2.7-1.29-4.03.11.2.24.52.32.44-.7-1.41-.69-2.75-1.32-3.98l.34.43c-.49-2.15-.57-.49-1.05-2.32.2.41.22.23.31.29-.91-1.55-1.87-4.23-2.74-5.77.07.08.1.04.1.04-.4-.87-.83-1.75-1.29-2.64-.45-.9-.93-1.8-1.54-2.67-.31-.7.52,0-.56-1.74-.26.24-1.98-2.82-1.69-1.59-.22-.37-.47-.8-.73-1.24-.29-.43-.58-.88-.87-1.32-.58-.86-1.13-1.67-1.55-2.07.59.53-.16-.94.75.17l-.5-1c.22.03.66.92.59.53-.47-.56-1.87-2.15-2.26-2.67-1.07-.86-2.14-1.55-3.69-3.06.81.64-.1-.7.42-.24-.87-.57-1.73-1.13-2.63-1.64-.53-.48.09-.32-.73-.96-.03.11-.4-.16-.68-.32-.16-.23-2.3-1.88-2.3-2.37-.15-.32.94.71.42.09-1-.88-1.16-.77-2.2-1.6v-.05c-.32-.29-.85-.66-1.22-.86-.38-.18-.6-.21-.27.15.48.37-.05-.32.6.32-.6-.23-1.91-1.04-2.98-1.81.4.21.41.1.62.12-.8-.41-1.62-.82-2.45-1.26-.83-.45-1.66-.93-2.56-1.35-.12.13.8.09,1.01.32-1.04-.72-2.21-1.34-3.35-1.85-1.16-.5-2.23-1.03-3.12-1.61.33.11.06.3.06.25-1.1-.52-.95-.73-1.71-.97-.01-.16-.92-.39-1.71-.63-.43-.06-.17-.14.5.1-.56-.14-1.91-.61-3.43-1.12-1.54-.48-3.23-1.06-4.48-1.49.02.12-1.64-.12-2.23-.25l.29-.17c-.5-.26-1.98-.44-2.03-.65-.66,0,.56.21,1.74.41,1.17.2,2.27.48,1.41.33-.38-.34-2.45-.24-2.01-.45-1.19-.26-2.38-.3-3.49-.69.32.1,1.03-.14.06-.29-1.71-.26-.51.02-1.9-.15-.29-.03-.59-.04-.88-.04-.09.21-1.53-.22-.92.1-.19-.21-2.5-.21-2.28-.54l.27-.27c-.75-.05-1.25.21-1.85.29-.09-.03-.29-.11-.25-.15-.15.44-1.78-.2-2.68.16-.78-.1-1.77-.13-2.66-.16-.89,0-1.68-.01-2.05-.14-1.2.14-2.28.38-3.66.4.27-.06.64-.1.71-.2-.87-.07-1.07.07-1.85.2.17-.11-1.74-.06-2.72-.09-1.17.28-.73.47-.83.63-.57-.15-1.39.09-2.24.31-.85.23-1.73.46-2.43.44.39-.16,1.66-.58.66-.49-1.16-.17-2.09.78-3.85,1.04l.51.23c-.81,0-2.43.91-2.36.5-.54.26-2.02.51-1.72.79-2.88.55-6.48,2.66-8.36,2.83-.36.21-1.3.64-1.04.71.7-.14.8-.56,1.09-.54-.33.16-.37.28-.38.34-.84.34-1.48.64-.85-.02-1.89.74-1.59,1.44-3.84,2.6.03-.18-.17-.14-.8.25-.37.3-.73.62-1.07.95-1.41.84-.97.22-1.13.03-.72.51-1.64,1.08-1.85,1.48l-1.05.37c.77-.27-.51.54-.81.83l.3-.29c-.2,0-.99.65-1.37,1.01.18.04,1.05-.54,1.54-.82-.31.35-.89.73-1.27,1.21,0-.32-1.23.75-1.8,1.16-.67.45-.55.75-.74.89-.1-.08-1,.84-.65.3.18-.21.55-.32.82-.7-.46.27-.56.07-1.28.91-.55.63.48.22-.81,1.13.27-.31.26-.44.45-.71-.4.29-.81.57-1.18.89l.11.21c-.18.1-.1-.01-.18.03-.16.47-1.58,1.6-1.63,2.02-.5.54-1.19,1.02-1.69,1.51l.08-.11c-.35.27-.7.62-1.02.99-.3.38-.56.78-.74,1.1v-.06c-.33.35-1.04,1.21-1.32,1.74-.87.83-.9-.21-1.5,1-.75.96-.85,1.74-.44,1.44-.7.83-1.32,1.81-1.96,2.76-.6.97-1.19,1.91-1.89,2.67-.09.31.06.17-.22.75-1.73,2.69-2.96,6.02-4.37,8.16.3-.88-.18-.15-.3-.18-.14.77-.55.77-.34,1.16.22,0,.27.11.69-.68-.32.9-.72,2.02-1.13,3.03-.4,1.01-.73,1.94-1,2.41.26-.47.19-.06.11.35-.26-.23-.77,1.08-.93,2.14l.15.2-.38.61c-.05.41.26.54-.19,1.5-.09.03-.17.07-.27.25-.07,1.12-.22,2.66-.56,3.8l-.45.91c-.06.51-.04,1.37.2.51-.28.98-.43,1.8-.57,2.45-.14.65-.27,1.13-.43,1.43.19,3.55.04,8.58.29,12.63l-.16-.11c-.05,1.1.3.54.25,1.31-.17-.34-.24.85-.47.01-.05,1.58.44,1.98.63,2.98.21.13-.22-.79.04-.63.09.16.12,2.16.44,2.35-.05.4-.32.14-.46-.06.08.31.2.61.3.92-.06.6-.33-.03-.61-.65-.24-.63-.5-1.26-.62-.62.06.29.1.59.17.88-.19.89-.66-2.29-.46-.05.31.94.87,1.68.85.81.44,1.96.82.8,1.22,2.9-.02.3-.13-.11-.24-.55-.1-.44-.21-.9-.29-.68-.08,1.05.56,1.96.67,2.86-.12-1,.36-.24.55.37.11,1.09-.43-.62-.11.89.23.21.74,1.53.52.33.52.43.34,1.57.85,2.29-.12.56-1.03-1.35-.69.32.15-.32.97,1.89,1.06.92.14.65-.03.78-.33.37.16.95,1.17,2.02.81,2.49l.37.21c.03.31.12.72.17,1.23.15.39.48.98.72,1.49.26.5.44.9.24.95.15.23.92,1.98.87,1.19-.33-1.15-.75-1.16-.67-1.91.06.88.74,1.54,1.11,2.11l-.09.17c.21.35.61,1.2.87,1.35-.22-.24-.24-.05-.13.26l.4.27c.86,1.41-.2.54.61,1.93-.25-.33-.48-.67-.73-1,.17.21.19.83.65,1.46.34.16.84.52,1.11.66.53.74,0,.47.63,1.13l-.8-.88c-.14-.12.07.87.72,1.91.48.62,1.39,1.46.83.37.33.51.68,1.3.29.97.8,1.12.1-.28.85.65.14.49.87,1.82,1.23,2.7l-1.01-.81.48.68c-.86-.71.14.57-.46.26.29.49.77,1,1.18,1.38-.64-1.6,1.68,1.06,1.72.41,1.48,1.7.06,1.79,2.12,3.14-.17-.37.81.25-.21-.74.9,1.08.92.45,1.93,1.76-.98-.76.58,1.26-.84.15.18,0-.6-.8-.8-.99.26.55-.43.22.56,1.28.64.61,1.49,1.49,1.53,1.2.16-.2-.95-.96-.38-.73,1.26,1.22,1.21,1.68,2.06,1.86-.83-.73-.83-1.12-.69-1.23.31.29.66.54.99.82l-.3-.05c1.4,1.5.65.2,2.05,1.6l.48.86c-.57-.07-2.04-2.06-2.1-1.48.92.92,1.39,1.04,2.25,1.92-.23-.15-.52-.38-.75-.53.34.31.29,1.09,1.93,2.03.83.5.3.03.43-.08,1.68,1.23,2.25,1.52,3.36,2.26-.43.11,1.91,1.4.5.82-.21-.29-.96-.83-1.7-1.39-.74-.56-1.54-1.07-1.93-1.17.17.39-.14.13-.58-.23-.42-.38-.95-.86-1.25-.85,1.26,1.12.96,1.36,1.01,1.73.36.31.79.5,1.04.65.31-.07-.18-.45-.05-.66,1.42,1.24,2.99,2.18,3.97,2.58.44.46.14.55-.48.14.92.64,1.91,1.24,2.87,1.87.95.65,1.93,1.21,2.83,1.78-1-1.03,2.1,1.1,1.45.34-.95-.63-1.64-1.37-1.02-1.22.6.37-.11.14.11.36.88.27,1.05,1,2,1.09-1.87-.81-.58.25-1.06.36,1.4.52-.16.17,1.14.84,1.38.55,3.1,1.14,4.62,1.76.89.52,2.11,1,3.31,1.43,1.22.37,2.43.7,3.3.99.88.41.15.57,1.14.92,1.18.33-.77-.62.93.04l-.19.02c.28.02,1.06.35,1.87.53.81.19,1.63.34,1.95.15l-.63.25c.32.11.65.1.93.12-.01.12.35.33-.21.28,1.04.54,2.34.4,3.54.62l-.74-.36c1.04.1,1.9.26,2.76.38.85.13,1.7.29,2.71.35l-.08.22,1.21-.04c-.31.19.78.41,1.43.28-1.05.1-2.12.22-3.19.29-.86-.23.98-.16.45-.44-.44-.23-2.31-.42-2.64-.25.71.12.75.07,1.32.06.2.34-.88.19-1.45.32.38.04.9.2.99.11-.75.04-1.52.02-2.74-.2.85.03-.42-.27-.09-.3-.14.25-1.33.13-2.83-.22-1-.58-2.87-.4-4.57-1,.77-.05,1.71-.04,2.79.08-1.05-.39-1.21-.24-2.25-.69-.57.05-1.03.25-2.47-.03l-.02-.22c-1.29-.3-1.38-.03-2.96-.62-1.36-.5-2.69-1.12-3.98-1.62-1.25-.58-2.43-1.11-3.42-1.59v-.22c-.62-.08-1.55-.51-2.52-1-.96-.48-1.91-1.09-2.68-1.41-1.19-.76-2.46-1.6-3.63-2.29-1.13-.75-2.1-1.44-2.58-1.99-4.07-2.83-7.43-5.65-10.85-9.5.26.15.54.29.81.43-.79-.52-.29-.54-.91-1.19.5.94-1.05-.74-1.6-1.11-.68-.93-1.45-1.99-2.3-2.94-.83-.97-1.62-1.94-2.3-2.71l.12-.18c-.75-.74-1.35-1.7-1.96-2.72-.61-1.03-1.11-2.19-1.73-3.31-.08-.29-.12-.8-.49-1.46-.92-1.09-1.27-1.73-2.27-3.52-.65-1.35-1.44-3.65-1.87-5.1-2.34-5.14-3.4-10.85-4.33-16.62l.18-.45c-.26-1.4-.44-2.89-.56-4.42-.05-1.53-.16-3.09-.07-4.62.03-.77.05-1.52.07-2.27.04-.74.11-1.47.16-2.19.08-1.42.23-2.76.33-3.97l.35.52c.28-1.49.4-3.43.05-3.1.2-.74.31-1.69.45-2.56.18-.86.36-1.66.63-2.09.41-1.5.28-1.9.57-3.16.48-1.49.86-2.49,1.2-3.48.16-.5.32-.99.5-1.54.2-.54.41-1.12.66-1.82l-.29.67c-.04.33.12.42.41-.25.15-.53.53-1.46.81-2.14.28-.68.41-1.13-.03-.72,1.46-2.79,3.03-6.71,4.97-9.13-.25.15.14-.51.24-.84.37-.58.76-1.17,1.16-1.74.42-.55.84-1.11,1.25-1.64.79-1.09,1.61-2.07,2.2-3.01.32-.3-.26.69.45-.18.37-.55-.13-.12.33-.81,2.67-3.63,6.31-6.53,9.37-9.18,2.69-2.41,5.65-4.66,8.77-6.57,3.13-1.91,6.35-3.57,9.54-4.96l-.03.12c.99-.64,2.31-1.02,3.54-1.44,1.25-.37,2.45-.71,3.24-1.28.55-.09,2.03-.54,1.69-.26.85-.37,2.11-.7,3.49-.94.69-.13,1.4-.27,2.09-.43.7-.14,1.39-.29,2.04-.49-.24.03-.38.08-.65.17,1.35-.13,2.59-.39,3.87-.55.64-.09,1.28-.18,1.94-.27.66-.07,1.35-.09,2.06-.1-.28.06-.8.13-.88.24,1.1.11,2.56-.63,3.19-.16.63-.02.44-.25.05-.22,6.21-.05,12.89.09,19.27,1.46,2.24.66,2.25.87,2.17.97-.08.11-.26.08,1.55.42.26.17.26-.11.28,0,.7.13,1.19.41,1.63.65.44.27.82.51,1.32.55-.29-.4.67.06.75-.1,1.32.53,2.06.95,2.76,1.3.69.35,1.35.58,2.41.94l-.21.07c2.57.66,5.2,2.2,7.36,2.88,12.68,7.07,22.93,17.42,29.55,30.05,6.37,12.52,9.37,26.61,7.76,40.83-.78,3.28-.76,3.51-1.26,7.15-.04-.16-.01-.39-.11-.16.32.25-.5,2.53-.28,2.94-1.28,5.12-2.79,9.76-5.1,14.68.32-.8.26-1.3-.14-.37-.08.35-.16.71-.27,1.05l-.16.11c-.27.64-.48,1.39-.05.8-2.93,6.18-6.96,11.76-11.58,16.65-2.33,2.44-4.82,4.7-7.41,6.82-2.63,2.07-5.32,4.05-8.16,5.81-2.76,1.56-6.66,3.8-9.82,5.2-4.78,1.81-9.47,3.05-14.23,3.92-4.76.86-9.59,1.37-14.74,1.53,0,0,.34-.22,1.2-.48.86-.27,2.24-.5,4.31-.8Z"/>
        <path class="cls-1" d="M70.01,145.23c-.35-.16-1.5-.33-.57-.49.11.16.7.34.57.49Z"/>
        <path class="cls-1" d="M40.92,135.85c-.06.03-.35-.26-.43-.32.34.16.71.2.94.41-.34-.16-.33-.07-.51-.08Z"/>
        <path class="cls-1" d="M34.27,131.85c.18-.06,1.64.74,2.47,1.25l-2.47-1.25Z"/>
        <path class="cls-1" d="M28.83,127.1c-.4-.49-.23-.42.42.09,0,.1-.24-.04-.42-.09Z"/>
        <path class="cls-1" d="M28.23,127.03c-.46-.39-.62-.65-.79-.9-.06.11,1.1.85.79.9Z"/>
        <path class="cls-1" d="M17.75,115.51c-.24-.28-.84-.85-.9-1.24.12.4,1.25,1.33.9,1.24Z"/>
        <path class="cls-1" d="M13.46,109.69c-.12-.2-.15-.29-.32-.51-.15-.41.15-.06.36.23l-.04.28Z"/>
        <polygon class="cls-1" points="56.53 4.45 55.78 4.7 55.86 4.53 56.53 4.45"/>
        <path class="cls-1" d="M112.3,14.36c.71.36.38.43.47.51-.59-.39.32,0-.47-.51Z"/>
        <polygon class="cls-1" points="134.39 36.6 134.27 36.4 134.56 36.31 134.39 36.6"/>
      </g>
    </g>
    <g>
      <polygon class="cls-10" points="42.05 35.3 104.14 35.3 96.01 120.94 53.52 120.94 42.05 35.3"/>
      <g>
        <line class="cls-2" x1="88.24" y1="17.74" x2="78.37" y2="104.81"/>
        <path class="cls-9" d="M85.79,39s14.01,2.55,12.97,13.76c-.05.49-.31.94-.72,1.2-1.97,1.23-8.07,3.27-12.25-14.95Z"/>
        <path class="cls-9" d="M84.59,37.38c-5.24-.79-15.66-.99-19.51,8.83-.22.57-.16,1.21.15,1.74,1.46,2.41,6.76,7.78,20.43-7.58.95-1.07.34-2.77-1.08-2.99Z"/>
        <path class="cls-9" d="M81.18,82.49s-3.91,12.49,5.65,16.43c.42.17.89.15,1.28-.08,1.84-1.07,6.11-5.17-6.93-16.36Z"/>
        <path class="cls-9" d="M84.28,56.57s-12.7,1.34-12.52,11.43c0,.44.21.86.56,1.12,1.67,1.23,6.99,3.47,11.96-12.55Z"/>
        <path class="cls-9" d="M83.33,62.36s11.21,4.54,8.51,11.98c-.12.32-.41.58-.8.67-1.83.45-7.23.62-7.71-12.65Z"/>
        <path class="cls-9" d="M82.26,74.81s-11.99,1.56-11.25,9.44c.03.34.25.66.6.85,1.66.9,6.84,2.42,10.65-10.3Z"/>
      </g>
      <path class="cls-6" d="M93,115.96h-10.2s-5.8-61.94,7.09-61.9c12.63.04,3.11,61.9,3.11,61.9Z"/>
      <path class="cls-5" d="M55.86,115.62h10.2s1.62-63.71-10.31-59.35c-12.27,4.49.11,59.35.11,59.35Z"/>
      <path class="cls-5" d="M69.38,115.37h10.2s4.81-58.98-7.09-61.9c-10.85-2.67-3.11,61.9-3.11,61.9Z"/>
    </g>
  </g>
</svg>