<?xml version="1.0" encoding="UTF-8"?>
<svg id="Laag_1" xmlns="http://www.w3.org/2000/svg" viewBox="0 0 121.87 111.13">
  <defs>
    <style>
      .cls-1 {
        fill: #ae3018;
      }

      .cls-2 {
        fill: #f7aec2;
      }

      .cls-3, .cls-4 {
        fill: #fff;
      }

      .cls-5 {
        fill: #6b6b6b;
      }

      .cls-4 {
        stroke: #fff;
        stroke-miterlimit: 10;
      }

      .cls-6 {
        fill: #ebf2ee;
      }
    </style>
  </defs>
  <circle class="cls-2" cx="55.56" cy="55.56" r="55.56"/>
  <g>
    <polygon class="cls-6" points="18.28 30.84 117.23 19.23 121.87 85.39 23.5 86.84 18.28 30.84"/>
    <polygon class="cls-4" points="19.18 30.67 117.78 19.35 71.87 61.15 19.18 30.67"/>
    <g>
      <path class="cls-3" d="M117.48,20.29l-45.27,41.17c-.21.19-.52.22-.76.08L19.37,30.63c-.45-.27-1.02.09-.97.61l5.12,54.85c.04.45.53.72.94.51l47.4-24.82"/>
      <path class="cls-5" d="M117.48,20.29c-11.4,10.55-32.89,30.38-44.34,40.85-.46.42-1.01,1.11-1.71.83-15.07-8.82-37.02-21.85-52.17-30.83-.17-.1-.18-.11-.21-.11-.06,0-.15.05-.16.11,0,.02,0,.03,0,.06,0,0,.02.23.02.23,1.21,13.12,3.44,37.58,4.65,50.94,0,0,.32,3.64.32,3.64.01.28.24.37.47.24,1.29-.69,7.11-3.66,8.52-4.41,8.22-4.28,30.46-15.69,38.99-20.06-8.55,4.57-30.4,16.26-38.69,20.62,0,0-6.46,3.42-6.46,3.42l-1.61.86s-.4.21-.4.21c-.14.09-.43.18-.65.14-.48-.04-.88-.51-.88-.95-.16-1.36-2.92-30.58-3.15-32.73,0,0-1.38-14.55-1.38-14.55,0,0-.69-7.27-.69-7.27-.18-.75.4-1.57,1.21-1.47.28.02.53.19.62.24,0,0,1.57.93,1.57.93l3.14,1.86c13.13,7.85,34.28,20.38,47.21,28.13.08.03.18.01.24-.05,0,0,.68-.61.68-.61,0,0,1.36-1.22,1.36-1.22,10.79-9.76,32.65-29.36,43.51-39.05h0Z"/>
    </g>
    <ellipse class="cls-1" cx="72.57" cy="60.38" rx="6.57" ry="5.76"/>
    <path class="cls-3" d="M72.26,64.58c.31.05.62-.05.86-.24,1.32-1.01,4.86-4.98,3.46-6.39-1.63-1.65-3.4.52-3.76,2.53,0,0-2.89-5.77-4.18-3.14-1.21,2.46,1.11,6.87,3.61,7.25Z"/>
  </g>
</svg>