<?xml version="1.0" encoding="UTF-8"?>
<svg id="Laag_1" xmlns="http://www.w3.org/2000/svg" xmlns:xlink="http://www.w3.org/1999/xlink" viewBox="0 0 428.16 170.33">
  <defs>
    <style>
      .cls-1 {
        filter: url(#drop-shadow-1);
      }

      .cls-2 {
        fill: #fdead5;
      }

      .cls-3 {
        fill: #2c191e;
      }

      .cls-4 {
        fill: #6d731f;
        opacity: .6;
      }

      .cls-5 {
        fill: #fa7302;
      }

      .cls-6 {
        fill: #d26101;
      }

      .cls-7 {
        fill: #f2b82f;
      }

      .cls-8 {
        fill: #723b00;
      }

      .cls-9 {
        fill: #664417;
      }

      .cls-10 {
        fill: #f5acc0;
      }

      .cls-11 {
        fill: #3e2b30;
      }

      .cls-12 {
        fill: #5f3100;
      }

      .cls-13 {
        fill: #fff;
      }

      .cls-14 {
        stroke: #f5acc0;
      }

      .cls-14, .cls-15 {
        fill: none;
        stroke-linecap: round;
        stroke-miterlimit: 10;
        stroke-width: 2px;
      }

      .cls-16 {
        fill: #7f8424;
      }

      .cls-17 {
        fill: #8b5e21;
      }

      .cls-15 {
        stroke: #3e2b30;
      }

      .cls-18 {
        fill: #e09daf;
      }

      .cls-19 {
        fill: #6e3900;
      }
    </style>
    <filter id="drop-shadow-1" x="150.21" y="8.57" width="139.68" height="50.26" filterUnits="userSpaceOnUse">
      <feOffset dx="7" dy="7"/>
      <feGaussianBlur result="blur" stdDeviation="0"/>
      <feFlood flood-color="#000" flood-opacity=".08"/>
      <feComposite in2="blur" operator="in"/>
      <feComposite in="SourceGraphic"/>
    </filter>
  </defs>
  <path class="cls-13" d="M321.23,69.52h91.08s-3.44-15.13-21.13-14.1c-17.7,1.03-18.21,9.62-18.21,9.62,0,0,0-27.49-17.53-23.88-17.53,3.61-9.97,22.85-9.97,22.85,0,0-5.15-7.56-13.57-5.5-8.42,2.06-10.67,11.01-10.67,11.01Z"/>
  <path class="cls-13" d="M109.47,28.69h91.08s-3.44-15.13-21.13-14.1c-17.7,1.03-18.21,9.62-18.21,9.62,0,0,0-27.49-17.53-23.88s-9.97,22.85-9.97,22.85c0,0-5.15-7.56-13.57-5.5-8.42,2.06-10.67,11.01-10.67,11.01Z"/>
  <path class="cls-13" d="M10.76,121.72h91.08s-3.44-15.13-21.13-14.1-18.21,9.62-18.21,9.62c0,0,0-27.49-17.53-23.88-17.53,3.61-9.97,22.85-9.97,22.85,0,0-5.15-7.56-13.57-5.5s-10.67,11.01-10.67,11.01Z"/>
  <g>
    <polygon class="cls-19" points="207.6 42.55 206.22 141.73 222.72 142 220.29 41.63 207.6 42.55"/>
    <g>
      <g class="cls-1">
        <polygon class="cls-8" points="282.89 33.56 153.81 51.83 153.44 49.27 154.87 48.12 158.88 47.01 153.23 47.81 153.04 46.54 173.08 43.71 171.86 42.94 162.27 43.64 162.34 43.63 152.42 42.2 151.05 32.68 159.22 30.95 151.94 30.18 150.68 30.05 150.45 28.47 150.21 26.85 279.3 8.57 279.57 10.44 271.67 11.56 268.56 12.19 279.67 11.12 280.33 15.72 267.56 18.02 270.02 18.93 280.67 18.09 282.44 30.45 278.1 31.44 276.79 32.78 282.66 31.95 282.89 33.56"/>
        <polygon class="cls-12" points="214.99 20.77 151.9 29.88 150.64 29.74 155.01 28.43 201.74 21.62 214.99 20.77"/>
        <polygon class="cls-12" points="207.89 30.12 161.87 36.79 159.17 37.82 196.78 32.06 207.89 30.12"/>
        <polygon class="cls-12" points="249.37 17.61 185.98 27.13 183.99 28.07 242.52 19.35 249.37 17.61"/>
        <polygon class="cls-12" points="273.86 32.84 237.92 38.13 229.25 39.89 269.19 34.09 273.86 32.84"/>
      </g>
      <g>
        <path class="cls-2" d="M166.42,35.74c.81.12,1.68.73,1.8,1.58.1.66-.06,1.28-.52,1.77-.67.74-1.75,1.34-2.75,1.48-.27.04-.56.06-.84.1-.03,0-.15-.02-.18-.03-.3-.09-.42-.36-.47-.66-.05-.36-.01-.72-.07-1.09-.14-.97-.32-1.95-.47-2.93-.11-.78-.18-1.57-.29-2.35-.06-.43.58-.52.88-.56,1.07-.16,2.41-.3,3.08.76.1.17.17.37.2.56.13.89-.35,1.07-.38,1.35ZM163.89,34.98l.03.23c.02.14.04.28.04.43.11.01.2,0,.3-.02.18-.03.39-.04.57-.1.28-.07.78-.42.85-.72,0-.05-.01-.17-.02-.23-.08-.57-.92-.79-1.4-.72-.17.02-.34.09-.49.16,0,.32.08.64.13.96ZM164.36,37.94c.04.25.17,1.08.27,1.28.08.17.4.15.56.13.57-.08,1.57-.65,1.8-1.2.06-.11.05-.35.04-.48-.02-.12-.07-.33-.14-.43-.03-.05-.17-.15-.21-.19-.49-.35-1.12-.42-1.7-.33-.26.04-.51.1-.75.19.05.35.09.69.14,1.04Z"/>
        <path class="cls-2" d="M169.95,38.93c-.48-.29-.68-.56-.76-1.12-.04-.28-.04-.56,0-.84.21-1.51,1.04-3.45,2.75-3.7.56-.08,1.18.11,1.5.6.07.1.07.13.17.2l.18.13c.46-.12.9-.55,1.31-.61.18-.03.35.05.48.19,0,.45-.3.66-.65.87-.35.22-.95.57-1,1.04-.03.25,0,.49-.05.76-.19,1.03-.87,2.03-1.83,2.48-.26.12-.54.2-.82.24-.52.08-.83,0-1.28-.25ZM172.12,36.45c-.45.07-.89-.03-1.34-.12-.35.22-.31.59-.32.96,0,.07,0,.13.02.2.06.44.3.76.79.69.62-.09,1.07-.75,1.36-1.26.04-.07.07-.16.06-.25-.02-.14-.13-.25-.27-.29-.1.03-.2.06-.29.07ZM171.74,34.4c-.13.19-.3.36-.27.61.05.37.44.42.74.38l.18-.04c.16-.14.22-.31.19-.53,0-.04-.01-.08-.03-.13-.16-.18-.35-.4-.61-.36-.08.01-.14.03-.2.07Z"/>
        <path class="cls-2" d="M177.36,36.36s-.01-.01-.02-.02l-.03.04h-.01s-.01.02-.02.02c.21.55.58,1.1,1.2,1.2.28.05.57,0,.86.02.17,0,.48.06.52.28.05.35-.7.79-1,.83-.54.08-1.43-.31-1.87-.62-.3-.22-.52-.5-.69-.84-.15-.31-.32-.65-.45-.98-.02-.05-.03-.13-.04-.19-.06-.4.1-.79.17-1.2.01-.08.01-.2.03-.28.04-.16.15-.34.22-.47.44-.78,1.19-1.32,2.08-1.45.53-.08.56.04,1.02.09.37.3.86.76,1.07,1.2.04.07.11.49.13.59.03.21.08.64-.04.84-.05.09-.08.2-.14.28-.11.16-1.76.4-2.02.44-.27.04-.55.05-.82.09-.01,0-.11.04-.14.05,0,.03.01.08,0,.08ZM178.05,33.89c-.35.32-.81.63-.75,1.17.44.11.91.16,1.36.09.26-.04.52-.12.77-.23l-.03-.21c-.05-.34-.38-1.08-.81-1.02-.19.03-.35.17-.54.2Z"/>
        <path class="cls-2" d="M183.27,32.79v.06c.07.07.15.13.24.11.17-.02.29-.21.46-.27.36-.33.63-1.02,1.15-1.09.26-.04.58.06.62.35s-.37.74-.47,1.06c-.21.73-.59,1.33-.47,2.13.07.5.31.93.89.85.39-.06.7-.33,1.09-.38.27-.04.48.06.66.26v.04c.05.23-.1.48-.31.56-.44.17-1.03.32-1.5.39-1.11.16-1.8-.3-1.97-1.44-.07-.47-.05-.94,0-1.41-.08-.03-.18-.03-.25-.02s-.18.04-.24.09c-.29.24-.42.94-.62,1.3-.41.71-.98,1.81-1.87,1.94-.21.03-.38-.06-.41-.3-.01-.09.02-.15.07-.22.13-.16.3-.31.43-.49.56-.68,1.03-1.47,1.27-2.32-.14-.32-.28-.66-.33-1.01s0-.69.19-.98c.19-.26.52-.58.85-.63.28-.04.52.14.56.41.05.34-.09.67-.04,1.01Z"/>
        <path class="cls-2" d="M191.33,34.49c.09.61.19,1.21.29,1.83-.31.52-.79.63-1.35.71-.08.01-.17.04-.25.04-.62.04-1.76-.15-2.22-.59-.11-.1-.16-.19-.22-.32-.2-.35-.33-.65-.39-1.06-.11-.76.04-2.05.46-2.71.25-.38.87-.55,1.28-.61.21-.03.43-.05.66-.03.03-.04.15-.14.16-.18,0-.07-.07-.86-.09-1-.06-.76-.1-1.52-.11-2.27.07-.09.28-.28.39-.3.27-.04.6.02.74.27.15,2.08.34,4.15.64,6.22ZM188.91,35.84c.16.11.84.12,1.04.09.61-.09.52-.59.45-1.07s-.21-.97-.26-1.45c-.04-.09-.09-.26-.18-.3-.31.05-.64-.01-.95.03-.17.02-.43.1-.52.26-.14.28-.12,1.05-.08,1.36.05.34.21.89.49,1.09Z"/>
        <path class="cls-2" d="M193.52,34s-.01-.01-.02-.02l-.03.04h-.01s-.01.02-.02.02c.21.55.58,1.1,1.2,1.2.28.05.57,0,.86.02.17,0,.48.06.52.28.05.35-.7.79-1,.83-.54.08-1.43-.31-1.87-.62-.3-.22-.52-.5-.69-.84-.15-.31-.32-.65-.45-.98-.02-.05-.03-.13-.04-.19-.06-.4.1-.79.17-1.2.01-.08.01-.2.03-.28.04-.16.15-.34.22-.47.44-.78,1.19-1.32,2.08-1.45.53-.08.56.04,1.02.09.37.3.86.76,1.07,1.2.04.07.11.49.13.59.03.21.08.64-.04.84-.05.09-.08.2-.14.28-.11.16-1.76.4-2.02.44-.27.04-.55.05-.82.09-.01,0-.11.04-.14.05,0,.03.01.08,0,.08ZM194.2,31.53c-.35.32-.81.63-.75,1.17.44.11.91.16,1.36.09.26-.04.52-.12.77-.23l-.03-.21c-.05-.34-.38-1.08-.81-1.02-.19.03-.35.17-.54.2Z"/>
        <path class="cls-2" d="M199.43,30.43v.06c.07.07.15.13.24.11.17-.02.29-.21.46-.27.36-.33.63-1.02,1.15-1.09.26-.04.58.06.62.35s-.37.74-.47,1.06c-.21.73-.59,1.33-.47,2.13.07.5.31.93.89.85.39-.06.7-.33,1.09-.38.27-.04.48.06.66.26v.04c.05.23-.1.48-.31.56-.44.17-1.03.32-1.5.39-1.11.16-1.8-.3-1.97-1.44-.07-.47-.05-.94,0-1.41-.08-.03-.18-.03-.25-.02s-.18.04-.24.09c-.29.24-.42.94-.62,1.3-.41.71-.98,1.81-1.87,1.94-.21.03-.38-.06-.41-.3-.01-.09.02-.15.07-.22.13-.16.3-.31.43-.49.56-.68,1.03-1.47,1.27-2.32-.14-.32-.28-.66-.33-1.01s0-.69.19-.98c.19-.26.52-.58.85-.63.28-.04.52.14.56.41.05.34-.09.67-.04,1.01Z"/>
        <path class="cls-2" d="M205.07,34.43c-.07.22-.28.36-.48.48-.25.04-.59-.05-.68-.31l-.04-.26c-.15-1.06-.2-2.11-.25-3.17-.01-.28-.09-1.1-.08-1.29.02-.2.3-.31.44-.42.05-.02.1-.03.14-.03.23-.03.49.03.53.29.23,1.56.18,3.15.42,4.72ZM205.25,27.86c-.26.38-.48.53-.95.6-.17.02-.34.02-.5.02-.24-.12-.73-.3-.78-.61-.1-.66.46-1.52,1.14-1.62.71-.1,1.14.39,1.24,1.06.04.25-.01.36-.14.55Z"/>
        <path class="cls-2" d="M208.06,28.98c.02.13.02.26,0,.38.15.6.27,1.21.36,1.82.2,1.36.24,2.82-.12,4.14-.22.81-.85,1.52-1.44,2.08-.11.09-.23.24-.35.32-.07.05-.26.09-.35.1-.39.06-.64-.01-.7-.44l-.02-.14c.14-.38.57-.44.81-.71,1.28-1.44,1.34-3.31,1.07-5.12-.08-.57-.21-1.14-.33-1.71-.06-.3-.14-.6-.18-.88-.04-.25.34-.47.53-.5.26-.04.5,0,.65.23,0,.14.04.28.06.43ZM206.99,27.42c-.19.03-.4,0-.58-.06-.22-.18-.36-.45-.4-.73-.08-.58.15-1.24.8-1.33.34-.05.86.11,1,.46.02.05.04.17.05.23.1.66-.14,1.33-.87,1.43Z"/>
        <path class="cls-2" d="M221.14,30.4c.04.16-.07.34-.2.44-.18.03-.33.08-.5.11-.07.01-.17.01-.24,0-.24-.09-.96-1.22-1.35-1.43-.37.02-.73.06-1.09.11-.25.04-.48.08-.73.12-.16.39-.34.76-.48,1.14-.07.19-.11.46-.2.63-.07.16-.28.39-.46.42-.25.04-.53-.26-.59-.49.13-.51.35-.99.49-1.51.22-.88.56-1.72.75-2.61.11-.43.23-.97.75-1.05.06,0,.13,0,.19,0,.29-.02.49-.06.67.22.36.55.77,1.09,1.18,1.62.28.38.57.78.88,1.15.1.12.23.23.33.35.2.24.4.48.6.73v.04ZM217.19,28.68c.15.05.4.03.56,0,.25-.04.49-.1.73-.17-.2-.27-.59-.79-.86-.97-.19.29-.41.8-.43,1.14Z"/>
        <path class="cls-2" d="M224.47,31.59c-.12-.51-.56-.3-.94-.25-.26.04-.52.04-.75-.1-.64-.34-1.01-1.41-1.11-2.08-.02-.17-.04-.33-.03-.5.03-.64.52-1.23,1.16-1.33.46-.07.78.03,1.23.09.01-.23,0-.46-.04-.69-.06-.39,0-.93-.51-.85-.68.1-.93.83-1.3.89-.19.03-.43-.3-.46-.49-.09-.64,1.13-1.33,1.66-1.41.47-.07,1.01.09,1.24.54.27.53.42,1.34.51,1.91.18,1.24.12,2.49.28,3.73.01.18-.11.59-.3.66-.05.02-.12.03-.18.04-.17.02-.41.03-.46-.16ZM222.72,29.19c.04.25.16.74.29.95.08.13.32.13.45.14.17,0,.4.01.57-.01.46-.07.17-1.47.17-1.81-.15.02-.72-.17-1.11-.11-.45.07-.42.5-.37.85Z"/>
        <path class="cls-2" d="M226.71,26.02c.36-.32.83-.56,1.31-.62.21-.03.51-.03.71.05.48.22.59.89.73,1.34.22.77.56,2,.67,2.79,0,.06.02.25,0,.3-.07.24-.28.45-.54.49-.21.03-.43-.03-.57-.21-.07-.59-.51-3.1-.77-3.5-.1-.17-.24-.25-.44-.23-.08.01-.19.05-.28.09-.57.32-.21,2.77-.12,3.37.06.44-.21.66-.62.72-.11.02-.24,0-.34-.07-.23-.19-.34-1.51-.39-1.86-.13-.91-.31-2.03-.52-2.9.04-.25.32-.42.56-.46.41-.06.45.14.5.48.01.08.03.15.1.21Z"/>
        <path class="cls-2" d="M237.38,25.52s.06,0,.09.02c.45-.13.88-.31,1.35-.41l-.05-.34c-.07-.45-.15-.89-.22-1.34-.03-.18-.09-.35-.11-.53-.06-.41.24-.72.65-.78.19-.03.42,0,.45.22.01.09,0,.19,0,.3.02.13.12.72.1.82.04.26.03.51.06.76.03.18.09.34.14.5.09-.06.18-.09.29-.1.42-.06.63.02.69.47.08.52-.41.6-.78.74-.03.08-.02.16-.01.24.02.15.09.3.11.45.1.44.25.88.31,1.32.04.26-.02.38-.21.54-.1.07-.14.17-.29.19-.05,0-.11,0-.16-.01-.32-.01-.39-.29-.46-.56-.13-.67-.19-1.17-.4-1.83-.35.14-.74.22-1.08.39.11.27.72,1.73.75,1.92,0,.05,0,.08,0,.13-.16.22-.4.37-.68.41-.09.01-.2.02-.3,0-.57-.33-.56-1.44-.91-1.95-.25.16-.51.21-.81.25h-.06c-.17-.08-.29-.02-.33-.26-.05-.34.02-.68.32-.89.16-.12.37-.11.52-.27-.38-.85-.71-1.7-1.01-2.58.02-.36.18-.58.56-.64.22-.03.48.04.64.22.23.77.49,1.93.84,2.61Z"/>
        <path class="cls-2" d="M243.19,26.25s-.01,0-.02-.02l-.03.04h-.01s-.01.01-.02.02c.19.5.53,1.01,1.1,1.09.26.05.52,0,.79.02.16,0,.44.06.47.26.05.32-.64.72-.91.76-.5.07-1.31-.28-1.71-.57-.27-.2-.48-.46-.63-.76-.14-.28-.29-.6-.41-.89-.02-.05-.03-.12-.04-.18-.05-.37.09-.72.15-1.1.01-.07,0-.18.02-.26.04-.15.14-.31.2-.43.4-.71,1.09-1.21,1.9-1.33.48-.07.51.03.93.08.34.28.79.69.98,1.1.03.07.1.44.11.54.03.19.07.58-.03.76-.05.08-.07.18-.13.26-.1.15-1.61.37-1.85.4-.25.04-.5.05-.75.08-.01,0-.1.04-.13.04,0,.02.01.07,0,.07ZM243.82,24c-.32.29-.74.58-.69,1.06.4.1.83.14,1.24.08.24-.03.48-.11.7-.21l-.03-.19c-.04-.31-.35-.99-.74-.93-.18.03-.32.15-.49.18Z"/>
        <path class="cls-2" d="M250.18,22.08c.05.33.04.68.02,1.02.29.17.99-.02,1.05.41.04.27-.17.46-.43.5-.22.03-.45-.03-.67,0-.25.04-.37.2-.41.43-.06.43-.49.92-.44,1.25.03.22.22.29.39.39.08.04.14.08.23.11.29.09.71.09.77.47v.09c-.14.21-.25.34-.52.38-.47.07-.82-.35-1.26-.44-.41.13-.51.63-.84.87-.12.09-.32.22-.47.24-.2.03-.42-.12-.44-.32,0-.05,0-.12.01-.16.06-.12.19-.25.27-.35.24-.32.48-.67.6-1.06-.31-.48-.39-1.08-.57-1.62-.27-.08-.57.01-.82.05-.34.05-.74.02-.81-.4-.04-.31.41-.47.65-.5.26-.04.53-.03.79-.07.15-.02.32-.06.46-.15.25-.66.61-1.63,1.42-1.75.38-.06.76.09.99.4.02.07.03.15.04.22ZM248.59,24.57c.07-.01.17.16.2.2.31-.54.4-1.23.31-1.84-.02-.15-.06-.3-.1-.46-.4.49-.57,1.41-.47,2.01l.02.12s.03-.03.04-.03Z"/>
        <path class="cls-2" d="M259.91,19.48c-.14.06-.35.05-.41.22.24,1.68.46,3.37.8,5.03.24.35,1.31-.47,1.43.42v.04c.07.52-.79.59-1.14.64-.23.05-.48.07-.72.13-.26.05-.49.18-.75.22s-.52,0-.56-.32c-.11-.76.46-.51.66-.84-.03-.43-.09-.87-.15-1.29-.18-1.2-.41-2.41-.57-3.63-.1-.06-.23-.06-.36-.04s-.26.06-.39.08c-.32.05-.56-.1-.61-.43-.01-.07,0-.13,0-.19.02-.47.72-.47,1.05-.54.6-.12,1.17-.4,1.77-.49.28-.04.54.02.59.35.05.37-.38.55-.65.66Z"/>
        <path class="cls-2" d="M265.51,22.63c.22,1.52.26,3.75-1.71,4.04-.2.03-.42.02-.62.02-.11-.09-.28-.15-.3-.29-.08-.55,1.18-.5,1.53-1.42.29-.77.1-1.88-.02-2.69-.16-1.12-.68-2.6-1.18-3.62-.05-.11-.11-.26-.19-.37-.03-.04-.1-.08-.16-.07-.11.02-.21.1-.32.14-.23.09-.44.22-.69.26-.3.04-.33-.19-.47-.39v-.08c-.05-.16,0-.34.14-.42.18-.11.65-.25.88-.33.3-.12.56-.26.86-.39.09-.04.2-.05.29-.09.34-.15.69-.33,1.05-.38.15-.02.3-.02.45.02.08.11.1.14.12.27.01.08.02.17.01.24-.02.41-.84.59-1.16.72.63,1.57,1.22,3.16,1.47,4.85Z"/>
      </g>
    </g>
  </g>
  <g>
    <path class="cls-16" d="M0,170.33c9.15-9.41,27.27-17.89,51.87-24.79l-.62-10.71,2.44,1.39.95,8.56v.3s3.47-1.13,3.47-1.13v-.08l.12-2.86,1.51-3.19.47,5.5c8.65-2.18,17.99-4.17,27.92-5.97,13.25-2.4,27.57-4.42,42.73-6.02l-.97-5.28,1.77.84.67,4.28c.41-.03.83-.08,1.25-.13l.25-3.19,2-2.35-1.45,5.46c1.95-.19,3.93-.39,5.91-.56l-.23-4.45,1.97-.19-.26,4.51c18.18-1.64,37.43-2.67,57.42-3.01v-7.78l1.28,1.61.32,6.15c1.02-.02,2.05-.05,3.07-.05l-1.28-3.85h1.93l.67,3.83c1.09-.01,2.19-.02,3.3-.02l.23-2.83,1.61.97-.34,1.85c1.36-.01,2.74-.01,4.11-.01,7.32,0,14.56.09,21.69.27l.64-4.55,1.16.97-.18,3.63c.9.02,1.8.05,2.69.08v-5.55h.67l.09,5.57c33.09,1.03,63.94,3.97,90.85,8.36l-1.06-4.95,2.23-.15.25,5.34c7.32,1.22,14.34,2.55,21.04,3.97l-.22-2.92h2.97l-.6,3.39c1.74.37,3.45.76,5.14,1.15.57.14,1.14.27,1.7.41,15.67,3.72,29.27,8.02,40.29,12.76l-.16-5.22,2.92-1.7.61,8.43c9.34,4.32,16.58,8.99,21.37,13.91H0Z"/>
    <path class="cls-4" d="M208.24,129.96l-17.93,37.39H7.92s63.34-39.3,200.32-37.39Z"/>
  </g>
  <g>
    <path class="cls-15" d="M71.6,104.92s-5.36-1.96-3.62-5.86c1.22-2.73,2.18-.67,2.64.81.23.73-.03,1.53-.64,1.99-1.71,1.28-5.31,3.13-7.56-1.78"/>
    <path class="cls-11" d="M105.84,97.34l-31.93,4.76s-5.79,2.09-5.54,9.36l3.87,37.13,5.64-.07,1.74-19.15,3.39,17.68,5.06-.37-.31-14.55,17.16-1.51s2.63,14.12,3.63,14.92l7.47-.09-.26-19.11,4.41,17.02,6.49-.71-3.66-23.48s18.51-10.63,19.14-16.08c0,0,1.86-4.65-6.55-6.28,0,0-5.96-3.51-7.21-6.3,0,0,1.48-7.25-2.44-11.93,0,0-4.09,3.28-3.97,8.66l-8.33,3.83s-1.54-9.05-5.81-9.53c0,0-4.24,5.14-1.99,15.82Z"/>
    <ellipse cx="120.23" cy="99.83" rx="1.48" ry="2.11" transform="translate(-10.12 13.64) rotate(-6.23)"/>
    <ellipse cx="132.15" cy="95.18" rx="1.13" ry="1.61" transform="translate(-9.55 14.9) rotate(-6.23)"/>
    <ellipse cx="141.14" cy="101.48" rx=".45" ry=".75" transform="translate(-10.18 15.92) rotate(-6.23)"/>
    <ellipse cx="137.98" cy="102.66" rx=".73" ry="1.22" transform="translate(-10.33 15.58) rotate(-6.23)"/>
    <ellipse class="cls-13" cx="120.27" cy="98.9" rx=".82" ry="1.01" transform="translate(-10.02 13.64) rotate(-6.23)"/>
    <ellipse class="cls-13" cx="132.17" cy="94.47" rx=".63" ry=".77" transform="translate(-9.47 14.9) rotate(-6.23)"/>
    <path class="cls-3" d="M107.48,83.68c-1.7,2.38-1.4,10.55-.92,12.94.03.16.19.25.34.22.77-.16,2.93-.7,3.07-1.62s-1.16-8.69-1.93-11.57c-.08-.3-.38-.22-.56.04Z"/>
    <path class="cls-3" d="M126.01,79.46c.7,1.21,3.03,5.67,2.18,9.83,0,0-.66.41-1.26-.35-.53-.67-1.21-7.7-1.16-9.42,0-.14.18-.18.25-.06Z"/>
    <path class="cls-3" d="M108.69,144.52s6.49.46,6.68.44.08-1.47.08-1.47l-7.18.34.42.69Z"/>
    <polygon class="cls-3" points="120.51 142.42 126.04 142.13 125.74 140.58 120.28 141.43 120.51 142.42"/>
    <polygon class="cls-3" points="83.38 146.62 87.7 146.42 87.66 145.48 83.14 145.72 83.38 146.62"/>
    <polygon class="cls-3" points="72.4 148.14 77.67 148.28 77.64 147.54 72.43 147.61 72.4 148.14"/>
  </g>
  <g>
    <path class="cls-15" d="M158.27,117.99s-2.78-1.14-1.78-3.16c.7-1.41,1.16-.31,1.37.48.11.39-.05.8-.38,1.03-.92.63-2.85,1.53-3.93-1.1"/>
    <path class="cls-11" d="M176.41,114.73l-16.87,1.82s-3.08.98-3.11,4.8l1.24,19.59,2.97.08,1.32-10.02,1.4,9.36,2.67-.09.14-7.65,9.04-.43s1.08,7.47,1.59,7.91l3.92.11.27-10.04,1.96,9.03,3.42-.23-1.42-12.41s9.95-5.19,10.4-8.04c0,0,1.07-2.4-3.31-3.44,0,0-3.06-1.97-3.65-3.46,0,0,.93-3.78-1.03-6.32,0,0-2.22,1.64-2.27,4.46l-4.46,1.83s-.62-4.78-2.85-5.13c0,0-2.34,2.61-1.38,8.27Z"/>
    <ellipse cx="183.92" cy="116.35" rx=".78" ry="1.11" transform="translate(-7.52 12.83) rotate(-3.92)"/>
    <ellipse cx="190.28" cy="114.16" rx=".59" ry=".85" transform="translate(-7.35 13.26) rotate(-3.92)"/>
    <ellipse cx="194.86" cy="117.66" rx=".24" ry=".4" transform="translate(-7.58 13.58) rotate(-3.92)"/>
    <ellipse cx="193.18" cy="118.21" rx=".38" ry=".64" transform="translate(-7.62 13.47) rotate(-3.92)"/>
    <ellipse class="cls-13" cx="183.96" cy="115.86" rx=".43" ry=".53" transform="translate(-7.48 12.83) rotate(-3.92)"/>
    <ellipse class="cls-13" cx="190.3" cy="113.79" rx=".33" ry=".41" transform="translate(-7.33 13.26) rotate(-3.92)"/>
    <path class="cls-3" d="M177.56,107.6c-.94,1.21-.96,5.51-.76,6.78.01.08.09.14.17.12.41-.07,1.55-.31,1.65-.79s-.43-4.59-.77-6.12c-.04-.16-.19-.12-.29,0Z"/>
    <path class="cls-3" d="M187.39,105.78c.34.65,1.47,3.04.93,5.21,0,0-.36.2-.66-.21-.27-.36-.47-4.07-.41-4.97,0-.07.1-.09.13-.03Z"/>
    <path class="cls-3" d="M176.91,139.58s3.4.38,3.5.37.07-.77.07-.77l-3.78.03.2.37Z"/>
    <polygon class="cls-3" points="183.16 138.72 186.07 138.69 185.95 137.87 183.06 138.2 183.16 138.72"/>
    <polygon class="cls-3" points="163.57 140.14 165.84 140.13 165.84 139.63 163.47 139.66 163.57 140.14"/>
    <polygon class="cls-3" points="157.77 140.7 160.54 140.89 160.53 140.5 157.8 140.43 157.77 140.7"/>
  </g>
  <path class="cls-14" d="M304.87,98.58s5.18-2.01,3.41-5.77c-1.24-2.63-2.13-.61-2.55.84-.21.72.06,1.49.66,1.93,1.68,1.21,5.22,2.94,7.32-1.87"/>
  <path class="cls-10" d="M271.43,91.83l31.16,4.04s5.67,1.93,5.57,9l-3.08,36.2-5.49.04-2.05-18.6-2.97,17.26-4.93-.27.03-14.16-16.72-1.15s-2.3,13.78-3.26,14.58l-7.27.06-.1-18.6-3.97,16.64-6.32-.57,3.12-22.92s-18.21-9.99-18.92-15.29c0,0-1.89-4.49,6.25-6.23,0,0,5.74-3.53,6.9-6.27,0,0-1.57-7.03,2.15-11.66,0,0,4.04,3.12,4.03,8.35l8.18,3.57s1.33-8.83,5.47-9.38c0,0,4.22,4.92,2.23,15.36Z"/>
  <ellipse cx="257.47" cy="94.53" rx="2.06" ry="1.44" transform="translate(140.28 342.5) rotate(-84.87)"/>
  <ellipse cx="245.78" cy="90.22" rx="1.57" ry="1.1" transform="translate(133.93 326.95) rotate(-84.87)"/>
  <ellipse cx="237.16" cy="96.52" rx=".73" ry=".44" transform="translate(119.8 324.09) rotate(-84.87)"/>
  <ellipse cx="240.24" cy="97.61" rx="1.19" ry=".71" transform="translate(121.53 328.16) rotate(-84.87)"/>
  <ellipse class="cls-13" cx="257.42" cy="93.63" rx=".99" ry=".8" transform="translate(141.13 341.63) rotate(-84.87)"/>
  <ellipse class="cls-13" cx="245.74" cy="89.54" rx=".75" ry=".61" transform="translate(134.58 326.28) rotate(-84.87)"/>
  <path class="cls-18" d="M269.57,78.58c1.69,2.28,1.56,10.24,1.13,12.57-.03.15-.18.25-.33.22-.75-.14-2.86-.63-3.02-1.52s.97-8.47,1.67-11.3c.07-.29.36-.22.54.02Z"/>
  <path class="cls-18" d="M251.46,74.82c-.65,1.19-2.84,5.57-1.93,9.61,0,0,.65.39,1.22-.36.51-.66,1.04-7.52.96-9.19,0-.13-.18-.17-.25-.06Z"/>
  <path class="cls-18" d="M269.53,137.8s-6.3.57-6.49.55-.11-1.43-.11-1.43l6.99.2-.39.68Z"/>
  <polygon class="cls-18" points="257.99 135.97 252.61 135.79 252.86 134.28 258.2 135.01 257.99 135.97"/>
  <polygon class="cls-18" points="294.2 139.37 289.99 139.25 290.01 138.34 294.4 138.49 294.2 139.37"/>
  <polygon class="cls-18" points="304.9 140.64 299.78 140.87 299.8 140.16 304.86 140.13 304.9 140.64"/>
  <path class="cls-11" d="M283.98,120.07c-.15,1.64.92,2.5,2.3,3.21s2.68-1.1,2.83-2.75-1.01-1.94-2.43-2.07-2.55-.04-2.7,1.61Z"/>
  <path class="cls-10" d="M174.94,129.25c.08.88-.49,1.35-1.24,1.73s-1.44-.59-1.52-1.48.54-1.04,1.31-1.11,1.37-.02,1.45.86Z"/>
  <path class="cls-11" d="M275.78,118.17c-.11,1.21,1.35,1.91,3.22,2.51,1.81.58,3.51-.68,3.62-1.89s-1.45-1.5-3.34-1.67-3.4-.16-3.51,1.05Z"/>
  <path class="cls-10" d="M179.35,128.23c.06.65-.73,1.03-1.74,1.35s-1.89-.36-1.95-1.02.78-.81,1.8-.9,1.83-.09,1.89.57Z"/>
  <path class="cls-11" d="M280.26,100.94c.64,1.76,1.33.99,3.94,1.81,2.53.79,4.2.37,4.35-1.27s-2.02-2.03-4.66-2.27c-2.64-.24-4.2.19-3.63,1.74Z"/>
  <path class="cls-10" d="M176.94,118.95c-.35.95-.72.53-2.12.97s-2.26.2-2.34-.69,1.09-1.09,2.51-1.22,2.26.1,1.96.93Z"/>
  <path class="cls-11" d="M291.54,98.56c.26.85.66.7,3.05,1.1,1.92.33,1.97.79,2.94-.78.86-1.41-1.41-1.98-3.31-2.15s-3.13.31-2.67,1.82Z"/>
  <path class="cls-10" d="M170.87,117.68c-.14.46-.35.37-1.64.59-1.03.18-1.06.43-1.58-.42-.47-.76.76-1.06,1.78-1.16s1.68.17,1.44.98Z"/>
  <g>
    <path class="cls-7" d="M386.46,130s5.67-7.62-2.78-8.95c0,0-10,.33-4.33,10.05l-12.22,5.63s1.56,14.36,14.11,11.82c0,0,16.77-1.44,5.22-18.55Z"/>
    <polygon class="cls-17" points="377.69 126.45 373.63 129.92 378.96 130.2 377.69 126.45"/>
    <polygon class="cls-17" points="378.16 148.8 378.2 153.76 376.74 155.34 379.34 157.53 382.07 154.66 380.52 152.96 380.32 148.68 378.16 148.8"/>
    <polygon class="cls-17" points="383.93 147.99 383.8 152.45 382.34 154.03 384.94 156.21 387.67 153.34 386.12 151.64 386.02 147.12 383.93 147.99"/>
    <path class="cls-5" d="M379.38,131.1l-14.44,6.63s4.03,8.6,11.02,5.75c0,0,10.85-3.39,3.41-12.39Z"/>
    <ellipse cx="381.51" cy="125.69" rx=".73" ry=".89"/>
    <ellipse class="cls-13" cx="381.17" cy="125.52" rx=".38" ry=".46"/>
    <polygon class="cls-9" points="384.13 148.19 384.08 152.27 384.75 151.93 384.5 148.06 384.13 148.19"/>
    <polygon class="cls-9" points="377.15 155.2 379.24 157.23 380.12 156.16 377.49 154.81 377.15 155.2"/>
    <path class="cls-6" d="M366.54,139.82s3.31,3.13,4.93,3.67c1.62.54,2.87-.06,2.87-.06l-7.8-3.61Z"/>
  </g>
  <g>
    <path class="cls-7" d="M355.11,152.55l-7.52,2.01s.13,6.64,6.89,5.89,3.7-8.47,3.7-8.47c0,0,2.11-4.59-1.31-4.44-3.41.16-3.46,1.86-1.77,5.02Z"/>
    <path class="cls-5" d="M355.1,152.54s2.14,3.67-1.76,4.98c-3.89,1.31-6.62-1.94-6.78-2.54s8.54-2.43,8.54-2.43Z"/>
    <path class="cls-17" d="M358.8,149.11l2.16.68-2.38.94s.26-1.07.22-1.62Z"/>
    <polygon class="cls-17" points="352.35 160.43 352.4 161.94 351.92 162.48 352.35 163.23 353.15 162.65 352.84 161.81 353.04 160.49 352.35 160.43"/>
    <polygon class="cls-17" points="354.54 160.43 354.49 161.94 354.98 162.48 354.54 163.23 353.75 162.65 354.05 161.81 353.86 160.49 354.54 160.43"/>
    <ellipse cx="356.52" cy="149.75" rx=".42" ry=".55"/>
    <ellipse class="cls-13" cx="356.59" cy="149.61" rx=".23" ry=".31"/>
    <path class="cls-6" d="M346.93,154.82s-.49,1.22,3.13,2.73l.53-.02s-3.12-1.77-3.67-2.71Z"/>
  </g>
  <g>
    <path class="cls-7" d="M342.46,133.27l7.52,2.01s-.13,6.64-6.89,5.89-3.7-8.47-3.7-8.47c0,0-2.11-4.59,1.31-4.44s3.46,1.86,1.77,5.02Z"/>
    <path class="cls-5" d="M342.46,133.26s-2.14,3.67,1.76,4.98,6.62-1.94,6.78-2.54-8.54-2.43-8.54-2.43Z"/>
    <path class="cls-17" d="M338.76,129.83l-2.16.68,2.38.94s-.26-1.07-.22-1.62Z"/>
    <polygon class="cls-17" points="345.22 141.15 345.16 142.66 345.65 143.2 345.22 143.95 344.42 143.37 344.73 142.53 344.53 141.21 345.22 141.15"/>
    <polygon class="cls-17" points="343.02 141.15 343.07 142.66 342.59 143.2 343.02 143.95 343.82 143.37 343.51 142.53 343.71 141.21 343.02 141.15"/>
    <ellipse cx="341.05" cy="130.47" rx=".42" ry=".55"/>
    <ellipse class="cls-13" cx="340.98" cy="130.33" rx=".23" ry=".31"/>
    <path class="cls-6" d="M350.64,135.54s.49,1.22-3.13,2.73l-.53-.02s3.12-1.77,3.67-2.71Z"/>
  </g>
</svg>