<?xml version="1.0" encoding="UTF-8"?>
<svg id="Laag_1" xmlns="http://www.w3.org/2000/svg" xmlns:xlink="http://www.w3.org/1999/xlink" viewBox="0 0 202.99 197.59">
  <defs>
    <style>
      .cls-1 {
        stroke: #f56835;
        stroke-dasharray: 10.16 10.16;
      }

      .cls-1, .cls-2 {
        fill: none;
        stroke-miterlimit: 10;
        stroke-width: 10px;
      }

      .cls-3 {
        filter: url(#drop-shadow-3);
      }

      .cls-4 {
        filter: url(#drop-shadow-2);
      }

      .cls-5 {
        filter: url(#drop-shadow-4);
      }

      .cls-6 {
        fill: #2c191e;
      }

      .cls-7 {
        fill: #6d731f;
        opacity: .6;
      }

      .cls-8 {
        fill: #f7aec2;
      }

      .cls-9, .cls-10 {
        fill: #ffecd7;
      }

      .cls-11 {
        fill: #723b00;
      }

      .cls-12 {
        fill: #3e2b30;
      }

      .cls-13 {
        fill: #ffd9aa;
      }

      .cls-14 {
        fill: #5f3100;
      }

      .cls-15 {
        fill: #fff;
      }

      .cls-10 {
        filter: url(#drop-shadow-1);
      }

      .cls-16 {
        fill: #808623;
      }

      .cls-2 {
        stroke: #cdcd98;
      }

      .cls-17 {
        fill: #e29fb1;
      }
    </style>
    <filter id="drop-shadow-1" x="9.83" y="6.93" width="193.15" height="189.15" filterUnits="userSpaceOnUse">
      <feOffset dx="7" dy="3"/>
      <feGaussianBlur result="blur" stdDeviation="0"/>
      <feFlood flood-color="#000" flood-opacity=".08"/>
      <feComposite in2="blur" operator="in"/>
      <feComposite in="SourceGraphic"/>
    </filter>
    <filter id="drop-shadow-2" x="97.31" y="78.96" width="99.59" height="94.7" filterUnits="userSpaceOnUse">
      <feOffset dx="4" dy="3"/>
      <feGaussianBlur result="blur-2" stdDeviation="0"/>
      <feFlood flood-color="#000" flood-opacity=".05"/>
      <feComposite in2="blur-2" operator="in"/>
      <feComposite in="SourceGraphic"/>
    </filter>
    <filter id="drop-shadow-3" x="13.83" y="88.12" width="93.42" height="89.91" filterUnits="userSpaceOnUse">
      <feOffset dx="4" dy="3"/>
      <feGaussianBlur result="blur-3" stdDeviation="0"/>
      <feFlood flood-color="#000" flood-opacity=".05"/>
      <feComposite in2="blur-3" operator="in"/>
      <feComposite in="SourceGraphic"/>
    </filter>
    <filter id="drop-shadow-4" x="0" y="17.42" width="209.62" height="73.07" filterUnits="userSpaceOnUse">
      <feOffset dx="7" dy="7"/>
      <feGaussianBlur result="blur-4" stdDeviation="0"/>
      <feFlood flood-color="#000" flood-opacity=".08"/>
      <feComposite in2="blur-4" operator="in"/>
      <feComposite in="SourceGraphic"/>
    </filter>
  </defs>
  <circle class="cls-10" cx="102.91" cy="100.01" r="93.08"/>
  <circle class="cls-13" cx="102.85" cy="100.94" r="86.5"/>
  <g>
    <path class="cls-16" d="M38.61,160.08l1.82-.35c.52-.11,1.05-.22,1.58-.33"/>
    <path class="cls-16" d="M42.53,159.31c11.98-2.41,25.75-4.12,40.62-4.93v-8.75l1.12,1.97.28,6.71c.67-.04,1.34-.07,2.01-.09l-.05-2.02,1.03-4.63v6.61c.41-.02.82-.04,1.23-.05v-8.52l.92,2.81-.05,5.68c4.36-.16,8.8-.24,13.31-.24s9.08.09,13.5.25l.04-3.08.82-4.82v7.93c.18,0,.36.01.55.02v-4.93l.88,1.68v3.29c13.72.59,26.59,1.95,38.09,3.91v-4.12l.92,2.59.15,1.72c.26.04.52.08.77.13l.03-6.26.51-1.24v7.59c2.13.39,4.21.79,6.23,1.22l.15-1.95.5-.63v2.72c2.27.49,4.47,1,6.6,1.54-17.17,19.15-42.1,31.19-69.84,31.19s-52.64-12.03-69.8-31.14c1.93-.49,3.92-.95,5.97-1.41"/>
    <path class="cls-7" d="M40.55,161.61s38.16-7,59.08-6.59l27.28,28.35s-44.36,15.91-86.36-21.76Z"/>
  </g>
  <g>
    <path class="cls-15" d="M78.85,36.96h56.97s-6.31-13.95-16.78-13.95-12.62,7.97-12.62,7.97c0,0-3.99-13.79-15.28-12.62s-12.29,18.6-12.29,18.6Z"/>
    <path class="cls-15" d="M16.64,98.16h95.82s-3.62-15.92-22.23-14.83c-18.62,1.08-19.16,10.12-19.16,10.12,0,0,0-28.92-18.44-25.13-18.44,3.8-10.48,24.04-10.48,24.04,0,0-5.42-7.95-14.28-5.78s-11.22,11.58-11.22,11.58Z"/>
    <path class="cls-15" d="M195.9,93.21h-48.88s2.91-14.56,19.97-10.61c0,0-.83-22.26,14.77-14.56,15.6,7.7,14.14,25.17,14.14,25.17Z"/>
  </g>
  <g class="cls-4">
    <path class="cls-12" d="M192.38,109.92c-1.52,9.75-3.16,20.93-13.93,37.92l-.14-.04-24.24.51s-.22,2.91-.57,6.58c-.56,5.98-1.45,13.97-2.24,14.76l-10.47,1.02-1.69-17.71-.86-8.97-1.29,8.74-2.29,15.65h-9.18l.76-16.61.77-16.67s-27.54-12-29.25-19.5c0,0-3.32-6.2,8.21-9.75,0,0,1.33-.99,2.99-2.43.24-.21.48-.43.73-.66.46-.42.93-.86,1.4-1.32.1-.1.19-.19.28-.29,1.67-1.69,3.21-3.57,3.74-5.18,0,0-3.18-9.89,1.58-17,0,0,6.23,3.96,6.89,11.47l12.24,4.06s.78-12.84,6.67-14.17c0,0,6.73,6.52,5.2,21.75l45.23,1.98"/>
    <ellipse cx="127.91" cy="107.73" rx="2.08" ry="2.96"/>
    <ellipse cx="110.52" cy="103.06" rx="1.59" ry="2.26"/>
    <ellipse cx="98.9" cy="113.21" rx=".63" ry="1.05"/>
    <ellipse cx="103.49" cy="114.38" rx="1.03" ry="1.71"/>
    <ellipse class="cls-15" cx="127.72" cy="106.44" rx="1.16" ry="1.42"/>
    <ellipse class="cls-15" cx="110.37" cy="102.08" rx=".88" ry="1.08"/>
    <path class="cls-6" d="M143.3,83.29c2.74,3.05,3.57,14.49,3.26,17.89-.02.22-.22.38-.44.36-1.11-.11-4.21-.53-4.54-1.79s.3-12.28.94-16.42c.07-.43.5-.36.79-.04Z"/>
    <path class="cls-6" d="M116.7,80.23c-.79,1.79-3.38,8.36-1.54,14.03,0,0,.99.48,1.72-.68.64-1.02.52-10.92.19-13.31-.03-.19-.28-.22-.36-.05Z"/>
    <path class="cls-6" d="M150.91,168.25s-9.01,1.63-9.28,1.63-.34-2.04-.34-2.04l10.1-.61-.48,1.02Z"/>
    <polygon class="cls-6" points="134.03 167.12 126.25 167.56 126.43 165.36 134.21 165.71 134.03 167.12"/>
  </g>
  <g class="cls-3">
    <g>
      <path class="cls-8" d="M102.86,122.84c-1.55,7.12-26.38,18.48-26.38,18.48l.75,16.97.64,14.57h-8.29l-1.88-13.45-1.35-9.67-.91,9.97-1.39,15.31-9.43-.96c-.64-.67-1.35-6.86-1.86-12.22-.4-4.27-.67-8-.67-8l-21.25-.6c-10.12-12.03-15.56-28.58-17.01-40.47,1.21-.7,3.04-1.07,3.04-1.07l40.97-1.69c-1.38-14.44,4.68-20.61,4.68-20.61,5.32,1.26,6.02,13.43,6.02,13.43l11.04-3.85c.6-7.12,6.21-10.87,6.21-10.87,4.3,6.75,1.43,16.11,1.43,16.11.47,1.54,1.86,3.32,3.37,4.92.09.09.17.18.26.27.42.44.84.85,1.25,1.25.22.22.44.42.65.61,1.5,1.38,2.7,2.32,2.7,2.32,10.38,3.37,7.4,9.24,7.4,9.24Z"/>
      <ellipse cx="75.66" cy="115.39" rx="1.88" ry="2.81"/>
      <ellipse cx="91.35" cy="110.96" rx="1.43" ry="2.14"/>
      <ellipse cx="101.83" cy="120.59" rx=".57" ry="1"/>
      <ellipse cx="97.68" cy="121.69" rx=".93" ry="1.62"/>
      <ellipse class="cls-15" cx="75.84" cy="114.17" rx="1.05" ry="1.35"/>
      <ellipse class="cls-15" cx="91.48" cy="110.04" rx=".8" ry="1.03"/>
      <path class="cls-17" d="M61.79,92.22c-2.47,2.89-3.22,13.74-2.94,16.96.02.21.2.36.4.34,1-.1,3.79-.5,4.1-1.7s-.27-11.64-.85-15.57c-.06-.41-.45-.34-.71-.03Z"/>
      <path class="cls-17" d="M85.77,89.33c.71,1.7,3.04,7.92,1.39,13.3,0,0-.89.45-1.55-.64-.58-.96-.47-10.35-.17-12.61.02-.18.26-.21.33-.05Z"/>
      <path class="cls-17" d="M54.93,172.75s8.12,1.55,8.37,1.55.31-1.93.31-1.93l-9.11-.58.43.97Z"/>
      <polygon class="cls-17" points="70.15 171.68 77.16 172.09 77 170.01 69.99 170.34 70.15 171.68"/>
    </g>
    <path class="cls-12" d="M38.23,146.89c0,2.25-1.48,3.29-3.36,4.08s-3.36-1.83-3.36-4.08,1.54-2.51,3.39-2.51,3.32.26,3.32,2.51Z"/>
    <path class="cls-12" d="M49.1,145.31c0,1.67-1.98,2.43-4.48,3.02s-4.48-1.35-4.48-3.02,2.05-1.86,4.53-1.86,4.44.19,4.44,1.86Z"/>
    <path class="cls-12" d="M45.3,121.33c-1.04,2.32-1.85,1.18-5.34,1.97s-5.5-.01-5.5-2.26,2.87-2.51,6.32-2.51,5.44.77,4.52,2.8Z"/>
    <path class="cls-12" d="M30.92,116.72c-.44,1.13-.94.87-4.09,1.13-2.53.21-2.65.84-3.72-1.42-.96-2.02,2.07-2.51,4.56-2.51s4.03.81,3.26,2.8Z"/>
  </g>
  <path class="cls-2" d="M196.63,98.8c0,3.23-.16,6.42-.49,9.57-.13,1.36-.3,2.7-.5,4.03,0,.06-.01.12-.03.18-.2,1.39-.43,2.77-.7,4.13-2.91,15.04-9.4,28.79-18.57,40.33-1.17,1.49-2.4,2.94-3.67,4.36-17.17,19.15-42.1,31.19-69.84,31.19s-52.64-12.03-69.8-31.14c-2.94-3.27-5.64-6.74-8.09-10.39-7.25-10.78-12.32-23.14-14.58-36.46-.87-5.14-1.33-10.41-1.33-15.8C9.05,46.99,51.03,5,102.84,5s93.79,41.99,93.79,93.8Z"/>
  <path class="cls-1" d="M196.63,98.8c0,3.23-.16,6.42-.49,9.57-.13,1.36-.3,2.7-.5,4.03,0,.06-.01.12-.03.18-.2,1.39-.43,2.77-.7,4.13-2.91,15.04-9.4,28.79-18.57,40.33-1.17,1.49-2.4,2.94-3.67,4.36-17.17,19.15-42.1,31.19-69.84,31.19s-52.64-12.03-69.8-31.14c-2.94-3.27-5.64-6.74-8.09-10.39-7.25-10.78-12.32-23.14-14.58-36.46-.87-5.14-1.33-10.41-1.33-15.8C9.05,46.99,51.03,5,102.84,5s93.79,41.99,93.79,93.8Z"/>
  <g class="cls-5">
    <polygon class="cls-11" points="202.62 55.58 5.48 83.49 4.92 79.57 7.11 77.82 13.24 76.12 4.6 77.34 4.32 75.4 34.92 71.07 33.06 69.89 18.42 70.97 18.52 70.96 3.37 68.77 1.28 54.24 13.75 51.6 2.63 50.41 .71 50.21 .36 47.8 0 45.32 197.14 17.42 197.55 20.27 185.48 21.98 180.74 22.94 197.7 21.31 198.71 28.34 179.21 31.84 182.96 33.24 199.23 31.96 201.94 50.83 195.31 52.34 193.31 54.38 202.27 53.12 202.62 55.58"/>
    <polygon class="cls-14" points="98.92 36.05 2.57 49.95 .64 49.75 7.32 47.74 78.69 37.34 98.92 36.05"/>
    <polygon class="cls-14" points="88.07 50.32 17.8 60.51 13.67 62.08 71.12 53.28 88.07 50.32"/>
    <polygon class="cls-14" points="151.43 31.23 54.61 45.76 51.58 47.19 140.97 33.87 151.43 31.23"/>
    <polygon class="cls-14" points="188.83 54.48 133.95 62.55 120.7 65.24 181.7 56.38 188.83 54.48"/>
  </g>
  <g>
    <path class="cls-9" d="M24.75,58.9c1.24.18,2.56,1.12,2.75,2.42.15,1.01-.1,1.95-.8,2.7-1.02,1.14-2.67,2.04-4.21,2.27-.41.06-.85.08-1.29.15-.04,0-.23-.03-.27-.04-.46-.13-.65-.55-.71-1.01-.08-.55-.02-1.11-.1-1.66-.22-1.48-.49-2.97-.71-4.47-.17-1.18-.27-2.4-.44-3.58-.1-.65.89-.8,1.35-.86,1.64-.24,3.68-.46,4.71,1.17.16.26.26.57.31.86.2,1.36-.53,1.63-.59,2.06ZM20.89,57.75l.05.36c.03.22.06.43.06.66.16.02.3,0,.46-.03.28-.04.6-.07.87-.15.43-.1,1.2-.64,1.29-1.1,0-.08-.02-.26-.03-.36-.13-.87-1.41-1.21-2.14-1.1-.26.04-.52.14-.75.25,0,.48.12.97.19,1.46ZM21.61,62.26c.05.37.26,1.66.41,1.96.12.27.62.23.86.2.87-.13,2.39-.99,2.76-1.83.1-.18.08-.54.05-.73-.03-.18-.11-.51-.22-.65-.05-.07-.25-.23-.33-.3-.74-.54-1.71-.64-2.59-.51-.39.06-.78.15-1.15.29.08.53.13,1.05.21,1.58Z"/>
    <path class="cls-9" d="M30.14,63.78c-.73-.44-1.03-.86-1.16-1.71-.06-.43-.06-.86,0-1.29.33-2.31,1.59-5.27,4.19-5.65.85-.12,1.8.16,2.29.92.1.15.11.21.27.3l.27.2c.7-.18,1.37-.84,2-.94.28-.04.54.08.73.3,0,.69-.46,1.01-.99,1.33-.54.34-1.45.88-1.52,1.59-.04.39,0,.74-.07,1.16-.29,1.57-1.32,3.1-2.79,3.79-.4.18-.82.3-1.26.36-.79.12-1.27,0-1.95-.38ZM33.45,59.99c-.69.1-1.36-.04-2.04-.19-.54.34-.47.9-.49,1.46,0,.1,0,.2.02.3.1.67.45,1.16,1.2,1.05.95-.14,1.63-1.14,2.08-1.92.07-.11.11-.24.09-.38-.03-.22-.2-.37-.41-.44-.16.04-.31.09-.45.11ZM32.88,56.87c-.2.29-.46.55-.41.93.08.57.68.65,1.13.58l.27-.06c.25-.22.33-.47.29-.81,0-.06-.02-.12-.05-.19-.24-.27-.53-.61-.93-.55-.12.02-.21.05-.31.11Z"/>
    <path class="cls-9" d="M41.46,59.85s-.02-.02-.03-.04l-.05.07h-.02s-.02.03-.04.03c.32.84.89,1.68,1.84,1.83.43.08.87.01,1.31.03.26,0,.74.09.79.43.08.53-1.07,1.21-1.53,1.27-.83.12-2.18-.47-2.86-.95-.45-.34-.8-.77-1.05-1.28-.23-.47-.49-1-.68-1.49-.03-.08-.05-.19-.06-.29-.09-.61.15-1.21.26-1.83.02-.12.02-.3.04-.43.06-.25.23-.52.34-.72.67-1.19,1.82-2.02,3.18-2.22.81-.12.85.06,1.55.14.57.46,1.32,1.16,1.64,1.84.06.11.17.74.19.9.05.32.12.97-.06,1.28-.08.13-.12.3-.22.44-.17.25-2.69.62-3.09.67-.41.06-.83.08-1.25.14-.02,0-.17.07-.21.07,0,.04.02.12,0,.12ZM42.5,56.08c-.53.48-1.23.97-1.15,1.78.67.16,1.39.24,2.08.14.39-.06.8-.18,1.18-.35l-.05-.32c-.08-.51-.58-1.65-1.24-1.55-.3.04-.53.26-.82.3Z"/>
    <path class="cls-9" d="M50.48,54.4v.1c.11.11.22.19.36.17.26-.04.44-.33.71-.41.55-.5.96-1.55,1.75-1.67.39-.06.88.09.94.53s-.56,1.13-.71,1.62c-.32,1.11-.89,2.02-.71,3.25.11.77.47,1.42,1.36,1.29.59-.09,1.08-.5,1.67-.59.41-.06.74.09,1.01.4v.06c.08.35-.15.73-.47.86-.67.26-1.58.49-2.29.6-1.7.25-2.75-.47-3-2.2-.1-.71-.07-1.44-.01-2.15-.13-.04-.27-.04-.39-.02s-.27.06-.36.13c-.45.37-.64,1.44-.94,1.99-.63,1.08-1.49,2.76-2.85,2.96-.32.05-.58-.1-.63-.45-.02-.14.03-.23.11-.34.21-.25.46-.47.66-.74.86-1.03,1.57-2.24,1.94-3.55-.21-.49-.43-1.01-.51-1.54s-.01-1.05.29-1.49c.28-.4.8-.88,1.29-.96.43-.06.8.21.86.62.08.51-.13,1.03-.06,1.54Z"/>
    <path class="cls-9" d="M62.8,56.99c.14.93.29,1.85.45,2.8-.47.79-1.21.96-2.06,1.09-.12.02-.25.06-.37.05-.94.06-2.7-.23-3.4-.89-.16-.16-.24-.29-.33-.5-.3-.54-.51-.99-.6-1.63-.17-1.16.07-3.13.71-4.14.38-.58,1.33-.84,1.96-.93.32-.05.65-.08,1-.05.05-.07.23-.21.24-.28,0-.1-.11-1.31-.14-1.53-.09-1.16-.16-2.32-.16-3.46.1-.14.42-.42.6-.45.41-.06.91.03,1.13.42.22,3.17.52,6.33.98,9.49ZM59.09,59.07c.25.17,1.28.18,1.59.13.93-.14.8-.9.69-1.63s-.32-1.49-.4-2.22c-.06-.13-.14-.4-.27-.46-.47.07-.97-.02-1.44.05-.26.04-.66.16-.79.4-.22.44-.19,1.6-.12,2.07.07.51.32,1.36.75,1.66Z"/>
    <path class="cls-9" d="M66.14,56.24s-.02-.02-.03-.04l-.05.07h-.02s-.02.03-.04.03c.32.84.89,1.68,1.84,1.83.43.08.87.01,1.31.03.26,0,.74.09.79.43.08.53-1.07,1.21-1.53,1.27-.83.12-2.18-.47-2.86-.95-.45-.34-.8-.77-1.05-1.28-.23-.47-.49-1-.68-1.49-.03-.08-.05-.19-.06-.29-.09-.61.15-1.21.26-1.83.02-.12.02-.3.04-.43.06-.25.23-.52.34-.72.67-1.19,1.82-2.02,3.18-2.22.81-.12.85.06,1.55.14.57.46,1.32,1.16,1.64,1.84.06.11.17.74.19.9.05.32.12.97-.06,1.28-.08.13-.12.3-.22.44-.17.25-2.69.62-3.09.67-.41.06-.83.08-1.25.14-.02,0-.17.07-.21.07,0,.04.02.12,0,.12ZM67.18,52.48c-.53.48-1.23.97-1.15,1.78.67.16,1.39.24,2.08.14.39-.06.8-.18,1.18-.35l-.05-.32c-.08-.51-.58-1.65-1.24-1.55-.3.04-.53.26-.82.3Z"/>
    <path class="cls-9" d="M75.16,50.79v.1c.11.11.22.19.36.17.26-.04.44-.33.71-.41.55-.5.96-1.55,1.75-1.67.39-.06.88.09.94.53s-.56,1.13-.71,1.62c-.32,1.11-.89,2.02-.71,3.25.11.77.47,1.42,1.36,1.29.59-.09,1.08-.5,1.67-.59.41-.06.74.09,1.01.4v.06c.08.35-.15.73-.47.86-.67.26-1.58.49-2.29.6-1.7.25-2.75-.47-3-2.2-.1-.71-.07-1.44-.01-2.15-.13-.04-.27-.04-.39-.02s-.27.06-.36.13c-.45.37-.64,1.44-.94,1.99-.63,1.08-1.49,2.76-2.85,2.96-.32.05-.58-.1-.63-.45-.02-.14.03-.23.11-.34.21-.25.46-.47.66-.74.86-1.03,1.57-2.24,1.94-3.55-.21-.49-.43-1.01-.51-1.54s-.01-1.05.29-1.49c.28-.4.8-.88,1.29-.96.43-.06.8.21.86.62.08.51-.13,1.03-.06,1.54Z"/>
    <path class="cls-9" d="M83.78,56.91c-.11.34-.42.55-.74.73-.37.05-.9-.07-1.04-.47l-.06-.39c-.24-1.62-.31-3.22-.38-4.84-.02-.42-.14-1.67-.13-1.98.04-.31.46-.47.67-.64.08-.03.16-.04.21-.05.35-.05.75.05.81.45.35,2.39.28,4.82.65,7.2ZM84.04,46.87c-.4.58-.73.81-1.46.92-.26.04-.52.04-.76.03-.37-.19-1.12-.46-1.19-.94-.15-1.01.71-2.32,1.74-2.47,1.09-.16,1.74.59,1.89,1.62.05.37-.02.55-.22.84Z"/>
    <path class="cls-9" d="M88.35,48.58c.03.2.04.4,0,.58.23.91.41,1.86.55,2.78.3,2.07.37,4.3-.19,6.32-.34,1.24-1.29,2.33-2.2,3.18-.16.14-.35.37-.53.48-.11.08-.4.14-.54.16-.59.09-.97-.02-1.07-.67l-.03-.22c.22-.58.87-.67,1.23-1.09,1.96-2.2,2.04-5.06,1.64-7.82-.13-.87-.32-1.75-.5-2.61-.09-.45-.21-.92-.28-1.35-.05-.38.52-.72.82-.76.39-.06.76-.01,1,.36.01.22.06.43.1.65ZM86.71,46.2c-.3.04-.6,0-.88-.09-.34-.27-.54-.69-.61-1.12-.13-.89.23-1.89,1.22-2.03.51-.07,1.32.17,1.53.7.03.08.06.25.07.35.15,1.01-.21,2.03-1.33,2.19Z"/>
    <path class="cls-9" d="M108.31,50.75c.05.25-.11.51-.31.67-.27.04-.5.13-.77.17-.11.02-.25.02-.37,0-.37-.13-1.47-1.87-2.07-2.18-.57.03-1.11.09-1.67.17-.38.06-.74.13-1.11.18-.24.59-.51,1.16-.74,1.75-.1.29-.17.71-.3.96-.11.24-.43.6-.7.64-.38.06-.81-.4-.9-.75.2-.78.53-1.51.75-2.3.34-1.34.85-2.63,1.15-3.98.16-.65.35-1.49,1.15-1.6.09-.01.2,0,.3.01.44-.03.74-.09,1.02.33.55.84,1.18,1.67,1.8,2.48.43.58.87,1.2,1.34,1.76.16.18.35.35.5.53.31.36.61.74.92,1.12v.05ZM102.28,48.13c.23.08.61.04.85,0,.38-.06.75-.15,1.12-.26-.3-.42-.89-1.21-1.32-1.48-.29.45-.63,1.22-.65,1.73Z"/>
    <path class="cls-9" d="M113.4,52.56c-.19-.78-.86-.46-1.44-.38-.4.06-.8.06-1.14-.15-.98-.52-1.55-2.15-1.7-3.18-.04-.25-.06-.51-.04-.77.04-.98.79-1.88,1.77-2.03.7-.1,1.19.05,1.88.13.02-.35,0-.7-.06-1.06-.09-.59,0-1.42-.78-1.3-1.05.15-1.42,1.27-1.99,1.36-.29.04-.66-.46-.7-.74-.14-.97,1.73-2.04,2.54-2.16.72-.11,1.55.14,1.89.83.41.81.65,2.04.78,2.92.28,1.89.19,3.8.43,5.7.02.27-.16.91-.46,1.01-.07.03-.18.04-.27.06-.25.04-.62.05-.7-.25ZM110.73,48.9c.06.38.24,1.12.45,1.44.12.2.49.2.69.21.26,0,.61.02.86-.02.7-.1.26-2.25.26-2.76-.23.03-1.11-.26-1.7-.18-.69.1-.64.76-.57,1.3Z"/>
    <path class="cls-9" d="M116.82,44.06c.55-.49,1.28-.85,2-.95.32-.05.79-.04,1.08.08.73.34.9,1.36,1.11,2.05.34,1.18.85,3.06,1.03,4.27.01.09.04.38.01.46-.11.37-.43.69-.83.75-.32.05-.65-.05-.87-.31-.11-.9-.78-4.73-1.17-5.35-.15-.25-.37-.39-.68-.34-.13.02-.28.08-.42.14-.87.49-.32,4.23-.19,5.15.1.67-.31,1-.94,1.1-.16.02-.37,0-.51-.11-.36-.3-.52-2.3-.6-2.84-.2-1.39-.47-3.1-.79-4.43.06-.38.5-.64.86-.7.63-.09.69.21.77.73.02.13.05.23.16.33Z"/>
    <path class="cls-9" d="M133.12,43.29c.03.05.09,0,.13.04.69-.19,1.35-.47,2.06-.63l-.08-.52c-.1-.68-.24-1.36-.34-2.05-.04-.27-.13-.53-.17-.8-.09-.63.37-1.1.99-1.19.29-.04.64,0,.69.34.02.14-.01.3.01.46.03.2.18,1.1.15,1.25.06.4.04.79.1,1.16.04.27.13.51.22.76.13-.09.28-.13.44-.16.65-.09.96.03,1.06.71.12.79-.62.92-1.2,1.13-.04.12-.04.25-.02.37.03.23.14.46.17.69.15.68.38,1.34.48,2.01.06.4-.03.57-.32.82-.15.11-.22.25-.44.28-.07.01-.17-.01-.24-.02-.48-.02-.6-.45-.7-.86-.2-1.02-.3-1.78-.61-2.8-.54.21-1.13.33-1.64.59.17.42,1.1,2.64,1.15,2.93.01.07,0,.13,0,.2-.25.33-.62.57-1.03.63-.14.02-.31.03-.46,0-.86-.5-.85-2.19-1.39-2.98-.39.24-.78.32-1.23.38h-.09c-.26-.11-.45-.03-.5-.39-.08-.52.03-1.04.48-1.36.25-.18.56-.17.79-.41-.58-1.3-1.08-2.6-1.55-3.93.03-.56.28-.89.85-.97.34-.05.73.06.97.34.36,1.18.74,2.95,1.28,3.99Z"/>
    <path class="cls-9" d="M141.99,44.41s-.02-.01-.02-.03l-.05.06h-.02s-.02.02-.03.03c.3.77.81,1.54,1.68,1.67.4.07.79.01,1.2.03.24,0,.68.09.72.39.07.49-.98,1.1-1.4,1.16-.76.11-2-.43-2.61-.87-.41-.31-.73-.7-.96-1.17-.21-.43-.45-.91-.62-1.36-.03-.07-.04-.18-.06-.27-.08-.56.13-1.11.23-1.67.02-.11.01-.28.03-.39.06-.23.21-.47.31-.65.61-1.08,1.66-1.84,2.91-2.03.74-.11.78.05,1.42.12.52.42,1.2,1.06,1.5,1.68.05.1.15.68.17.82.04.29.11.89-.05,1.17-.07.12-.11.27-.2.4-.15.22-2.46.56-2.82.61-.38.06-.76.07-1.14.13-.02,0-.16.06-.19.07,0,.04.02.11,0,.11ZM142.95,40.97c-.49.44-1.12.88-1.05,1.63.61.15,1.27.22,1.9.13.36-.05.73-.16,1.08-.32l-.04-.29c-.07-.47-.53-1.51-1.13-1.42-.27.04-.48.24-.75.28Z"/>
    <path class="cls-9" d="M152.66,38.05c.07.5.06,1.04.03,1.56.44.27,1.5-.04,1.6.63.06.41-.27.7-.66.76-.34.05-.69-.05-1.03,0-.38.06-.56.3-.62.66-.09.66-.75,1.4-.68,1.9.05.34.34.45.6.59.12.06.22.12.36.17.44.14,1.09.14,1.17.71l.02.14c-.23.33-.4.52-.82.58-.72.11-1.26-.53-1.92-.68-.63.2-.78.96-1.28,1.33-.18.14-.49.33-.72.36-.31.04-.63-.18-.68-.49-.01-.07,0-.18.02-.24.08-.18.29-.37.42-.54.37-.5.73-1.03.92-1.63-.48-.74-.59-1.64-.88-2.47-.41-.12-.86.02-1.26.07-.52.08-1.14.04-1.23-.61-.07-.47.63-.72.99-.77.4-.06.8-.04,1.2-.1.23-.03.48-.09.7-.23.39-1.01.92-2.49,2.17-2.67.58-.08,1.16.14,1.51.61.03.11.05.23.07.34ZM150.24,41.84c.11-.02.26.24.3.31.47-.82.61-1.87.47-2.81-.03-.23-.09-.47-.16-.69-.61.75-.86,2.15-.71,3.07l.03.18s.05-.04.07-.05Z"/>
    <path class="cls-9" d="M167.53,34.08c-.21.09-.54.08-.63.33.37,2.56.7,5.14,1.21,7.68.37.53,1.99-.71,2.19.64v.05c.11.8-1.2.89-1.75.97-.36.07-.74.11-1.09.2-.39.08-.75.28-1.15.33s-.79-.01-.86-.48c-.17-1.15.7-.78,1.01-1.29-.04-.66-.14-1.32-.23-1.97-.27-1.84-.63-3.68-.86-5.54-.16-.09-.35-.1-.54-.07s-.39.09-.59.12c-.49.07-.85-.15-.92-.66-.02-.11-.01-.2,0-.29.02-.72,1.09-.71,1.61-.82.91-.19,1.79-.61,2.71-.75.43-.06.83.03.91.53.08.56-.58.84-.99,1.01Z"/>
    <path class="cls-9" d="M176.07,38.88c.34,2.33.39,5.72-2.62,6.16-.31.04-.64.04-.95.03-.17-.14-.42-.23-.45-.45-.12-.85,1.8-.76,2.34-2.16.44-1.17.15-2.88-.03-4.1-.25-1.71-1.04-3.97-1.8-5.54-.08-.17-.17-.4-.28-.57-.05-.07-.15-.13-.24-.11-.16.02-.33.16-.48.22-.35.14-.67.34-1.05.39-.45.07-.5-.29-.71-.6l-.02-.13c-.06-.25.02-.52.24-.64.27-.17.99-.38,1.34-.51.45-.18.86-.4,1.31-.6.14-.06.3-.08.44-.14.52-.22,1.05-.5,1.61-.59.23-.03.46-.03.69.03.12.17.16.22.19.41.02.13.04.25.02.37-.04.63-1.29.91-1.77,1.11.96,2.4,1.86,4.83,2.24,7.4Z"/>
  </g>
</svg>