<?xml version="1.0" encoding="UTF-8"?>
<svg id="Laag_1" xmlns="http://www.w3.org/2000/svg" viewBox="0 0 47.92 39.16">
  <defs>
    <style>
      .cls-1 {
        fill: none;
        stroke: #f7aec2;
        stroke-linecap: round;
        stroke-miterlimit: 10;
      }

      .cls-2 {
        fill: #f7aec2;
      }

      .cls-3 {
        fill: #3e2b30;
      }

      .cls-4 {
        fill: #fff;
      }

      .cls-5 {
        fill: #e29fb1;
      }
    </style>
  </defs>
  <path class="cls-1" d="M5.65,12.16s-3.06-1.51-1.77-3.72c.9-1.54,1.34-.26,1.52.66.09.45-.12.91-.51,1.14-1.1.65-3.36,1.52-4.38-1.55"/>
  <path class="cls-2" d="M26.51,9.87l-19.31.76s-3.58.87-3.91,5.21l-.11,22.35,3.36.33,2.28-11.28.87,10.74,3.04.11.76-8.68,10.31.22s.65,8.57,1.19,9.11l4.45.43,1.08-11.39,1.52,10.41h3.91l-.65-14.21s11.7-5.12,12.43-8.33c0,0,1.41-2.64-3.49-4.16,0,0-3.32-2.48-3.88-4.22,0,0,1.35-4.22-.68-7.26,0,0-2.64,1.69-2.93,4.9l-5.2,1.74s-.33-5.48-2.84-6.05c0,0-2.86,2.78-2.21,9.29Z"/>
  <ellipse cx="34.91" cy="12.29" rx=".89" ry="1.27"/>
  <ellipse cx="42.31" cy="10.29" rx=".68" ry=".97"/>
  <ellipse cx="47.25" cy="14.63" rx=".27" ry=".45"/>
  <ellipse cx="45.29" cy="15.13" rx=".44" ry=".73"/>
  <ellipse class="cls-4" cx="35" cy="11.74" rx=".49" ry=".61"/>
  <ellipse class="cls-4" cx="42.37" cy="9.87" rx=".38" ry=".46"/>
  <path class="cls-5" d="M28.38,1.85c-1.16,1.3-1.52,6.19-1.39,7.64,0,.09.09.16.19.15.47-.05,1.79-.23,1.93-.77s-.13-5.24-.4-7.01c-.03-.18-.21-.15-.33-.02Z"/>
  <path class="cls-5" d="M39.68.54c.34.76,1.43,3.57.66,5.99,0,0-.42.2-.73-.29-.27-.43-.22-4.66-.08-5.68.01-.08.12-.1.15-.02Z"/>
  <path class="cls-5" d="M25.14,38.13s3.83.7,3.94.7.15-.87.15-.87l-4.29-.26.2.44Z"/>
  <polygon class="cls-5" points="32.31 37.65 35.62 37.83 35.55 36.89 32.24 37.04 32.31 37.65"/>
  <polygon class="cls-5" points="9.95 37.74 12.53 37.9 12.57 37.33 9.87 37.18 9.95 37.74"/>
  <polygon class="cls-5" points="3.32 37.92 6.44 38.35 6.47 37.91 3.37 37.61 3.32 37.92"/>
  <path class="cls-3" d="M17.27,26.48c0,1.02-.7,1.48-1.58,1.84s-1.58-.82-1.58-1.84.73-1.13,1.6-1.13,1.57.12,1.57,1.13Z"/>
  <path class="cls-3" d="M22.39,25.77c0,.75-.93,1.09-2.11,1.36s-2.11-.61-2.11-1.36.97-.84,2.14-.84,2.09.09,2.09.84Z"/>
  <path class="cls-3" d="M20.6,14.96c-.49,1.04-.87.53-2.52.89s-2.59,0-2.59-1.02,1.35-1.13,2.98-1.13,2.56.34,2.13,1.26Z"/>
  <path class="cls-3" d="M13.82,12.88c-.21.51-.44.39-1.93.51-1.19.09-1.25.38-1.76-.64-.45-.91.97-1.13,2.15-1.13s1.9.36,1.54,1.26Z"/>
</svg>